<?xml version="1.0" standalone="no"?>
<!DOCTYPE svg PUBLIC "-//W3C//DTD SVG 20010904//EN"
 "http://www.w3.org/TR/2001/REC-SVG-20010904/DTD/svg10.dtd">
<svg version="1.0" xmlns="http://www.w3.org/2000/svg"
 width="1280.000000pt" height="1280.000000pt" viewBox="0 0 1280.000000 1280.000000"
 preserveAspectRatio="xMidYMid meet">

<g transform="translate(0.000000,1280.000000) scale(0.100000,-0.100000)"
fill="#000000" stroke="none">
<path d="M6940 11541 c-335 -6 -350 -7 -141 -9 129 -1 232 -4 230 -6 -3 -3
-36 -7 -74 -10 -46 -3 -71 -9 -73 -18 -2 -9 0 -8 7 2 7 10 11 11 11 3 0 -8 13
-13 30 -13 17 0 30 4 30 9 0 10 48 2 56 -10 3 -5 -1 -9 -8 -9 -7 0 -27 -14
-45 -30 -18 -17 -39 -30 -47 -30 -21 0 -22 -58 -1 -66 22 -9 10 -21 -30 -28
-24 -5 -39 -15 -47 -30 -21 -48 -91 -55 -163 -18 -16 9 -34 16 -40 17 -40 3
-75 19 -75 33 0 13 -2 14 -8 4 -7 -10 -20 -10 -68 2 -183 47 -459 67 -651 47
-155 -16 -338 -54 -517 -107 -83 -25 -166 -48 -183 -51 -18 -3 -33 -9 -33 -13
0 -7 -42 -22 -56 -19 -4 0 -10 -4 -13 -9 -3 -5 -62 -36 -131 -70 -129 -63
-261 -133 -270 -143 -3 -3 -43 -31 -90 -62 -193 -128 -320 -234 -514 -431
-187 -189 -302 -328 -484 -581 -40 -55 -84 -115 -98 -132 -32 -40 -35 -37 100
-145 217 -172 266 -213 266 -223 0 -5 -17 -34 -39 -65 -100 -144 -294 -575
-370 -825 -115 -375 -145 -633 -139 -1180 3 -321 6 -364 22 -400 10 -22 19
-46 20 -53 1 -7 18 -32 38 -55 81 -97 236 -129 350 -71 55 27 116 93 136 148
10 28 25 67 32 86 10 27 15 209 21 810 7 745 8 777 27 830 11 30 21 47 21 38
1 -10 5 -18 11 -18 5 0 9 3 8 8 -2 6 4 26 28 102 4 12 6 12 14 1 6 -10 13 1
24 37 8 28 24 61 35 74 12 12 21 30 21 39 0 10 4 21 10 24 12 7 36 60 44 97 4
19 1 30 -11 38 -17 11 -17 11 0 6 31 -10 51 19 38 54 -11 33 -5 39 15 13 14
-20 12 -22 41 34 18 36 19 41 5 35 -14 -5 -15 -3 -4 10 9 12 10 17 1 20 -7 2
-5 9 7 18 11 9 15 10 10 3 -4 -8 -2 -13 8 -13 8 0 18 9 21 20 3 11 11 20 18
20 8 0 8 3 -1 12 -7 7 -12 17 -12 22 0 6 5 5 12 -2 7 -7 16 -12 22 -12 5 0 6
3 3 6 -4 4 3 20 14 35 11 16 16 29 11 29 -6 0 -12 -6 -15 -12 -2 -7 -7 -11
-10 -8 -4 3 16 34 44 67 35 44 55 60 67 56 13 -4 14 -3 3 5 -11 8 -10 14 8 33
22 24 42 19 21 -6 -8 -10 -9 -15 -2 -15 19 0 36 41 22 50 -9 6 -9 9 0 15 7 4
16 2 20 -5 5 -8 10 -9 14 -2 3 6 1 12 -6 14 -16 6 107 129 124 124 7 -1 10 -1
6 1 -14 8 -9 21 10 27 9 3 44 31 76 61 33 30 63 55 68 55 5 0 23 13 41 29 48
43 126 101 153 113 13 6 24 15 24 20 0 5 10 7 23 4 12 -3 16 -3 8 0 -25 12
278 191 305 180 8 -3 13 -2 10 2 -3 5 10 16 29 26 55 30 85 120 61 185 -5 14
-4 21 1 18 5 -3 9 3 9 13 0 10 -4 16 -8 14 -11 -7 -10 4 3 28 8 15 8 19 0 14
-18 -11 -13 10 6 25 14 12 16 12 9 -1 -4 -8 2 -4 13 10 25 31 27 60 4 61 -12
0 -7 5 12 14 17 7 44 11 60 8 22 -3 26 -2 16 5 -14 10 -9 13 49 27 3 1 19 7
35 14 17 7 80 26 140 42 352 92 766 76 1061 -41 377 -150 678 -422 844 -763
32 -67 67 -146 76 -175 20 -64 34 -75 34 -28 0 19 4 46 10 61 5 14 6 24 1 21
-4 -3 -11 59 -14 137 -3 78 -9 153 -12 167 -5 18 -4 21 3 11 8 -11 10 -11 15
0 6 17 10 -46 9 -156 -1 -56 1 -73 7 -55 7 19 9 6 10 -50 1 -52 4 -70 11 -60
5 8 10 11 10 6 0 -5 -7 -18 -17 -28 -21 -23 -35 -110 -19 -120 6 -4 7 -8 1 -8
-6 0 -10 -90 -9 -253 2 -370 3 -394 14 -377 7 10 10 -9 10 -62 0 -45 4 -78 10
-78 13 0 13 -27 0 -32 -7 -2 -10 -34 -8 -83 l3 -80 9 83 c5 45 13 82 17 82 5
0 9 18 9 40 0 29 -4 40 -15 40 -11 0 -15 10 -14 38 1 33 2 34 9 12 5 -17 8
-19 9 -7 1 18 31 25 31 7 0 -19 18 -10 23 11 5 18 2 20 -18 15 -53 -14 -63 10
-49 118 9 59 34 64 34 6 0 -29 -4 -40 -15 -40 -8 0 -15 -7 -15 -15 0 -11 11
-15 40 -15 l40 0 0 55 c0 30 4 55 8 55 8 0 13 -80 26 -415 4 -119 28 -305 39
-305 12 0 -2 154 -14 158 -12 5 -12 82 0 82 5 0 12 -36 16 -80 7 -80 7 -80 36
-80 27 0 29 -3 29 -40 0 -36 3 -40 25 -40 25 0 25 -1 25 -80 0 -64 3 -80 15
-80 11 0 15 -11 15 -40 0 -29 4 -40 15 -40 11 0 15 -11 15 -40 l0 -40 -45 0
c-33 0 -45 -4 -45 -15 0 -16 -9 -19 -26 -7 -14 10 -3 114 14 120 6 2 12 -1 12
-7 0 -6 5 -11 10 -11 6 0 10 18 10 40 0 22 -4 40 -10 40 -5 0 -10 -4 -10 -10
0 -5 -9 -10 -19 -10 -10 0 -21 -7 -25 -15 -6 -16 -36 -21 -36 -6 0 15 -33 22
-42 9 -16 -26 -9 -48 17 -48 23 0 25 -4 25 -40 0 -33 -3 -40 -20 -40 -17 0
-20 -7 -20 -41 0 -24 -4 -38 -10 -34 -5 3 -10 22 -10 41 0 19 -4 34 -10 34 -5
0 -10 18 -10 40 0 28 -4 40 -14 40 -9 0 -13 8 -9 23 4 19 3 20 -9 6 -9 -12
-12 -39 -8 -102 5 -85 4 -87 -17 -87 -21 0 -23 5 -23 51 0 45 -2 49 -15 35
-12 -12 -13 -20 -5 -35 5 -11 10 -28 10 -38 0 -15 -2 -16 -10 -3 -8 13 -10 12
-10 -2 0 -33 -18 -18 -32 27 -9 25 -12 45 -7 45 4 0 9 10 11 23 2 12 9 21 15
20 15 -3 22 28 12 55 -12 31 -29 28 -29 -5 0 -16 -8 -37 -17 -48 -14 -19 -15
-15 -10 50 3 41 2 60 -3 45 -4 -14 -8 -42 -9 -62 -1 -21 -5 -38 -10 -38 -5 0
-12 -8 -14 -17 -2 -10 -2 -2 0 17 18 130 1 352 -38 509 -26 104 -94 269 -147
360 -187 314 -515 577 -862 691 -201 66 -423 101 -635 99 -128 -1 -129 -2 -70
-13 33 -7 68 -16 77 -20 9 -4 21 -5 26 -2 12 7 124 -14 137 -25 5 -5 17 -9 28
-9 10 0 15 -4 12 -10 -4 -6 1 -7 11 -3 13 5 15 3 9 -7 -5 -8 -4 -11 2 -7 13 8
119 -45 163 -81 77 -64 95 -82 75 -76 -16 5 -17 4 -5 -4 8 -6 18 -8 22 -5 16
9 129 -120 196 -222 92 -141 186 -335 161 -335 -5 0 -9 -8 -9 -17 0 -14 2 -15
9 -4 7 11 10 11 17 0 4 -7 3 -14 -4 -17 -7 -2 -12 -12 -12 -23 0 -26 -18 -24
-23 4 l-4 22 -2 -22 c0 -13 -6 -23 -12 -23 -8 0 -9 -24 -4 -80 5 -60 4 -80 -5
-80 -9 0 -11 -18 -6 -67 3 -38 7 -77 8 -88 1 -11 12 -35 25 -52 l24 -33 -23 0
c-20 0 -23 -5 -23 -42 -1 -24 -2 -68 -4 -98 -4 -67 9 -180 20 -180 5 0 9 -8
10 -17 0 -15 2 -15 9 2 6 14 9 16 10 5 1 -8 5 -5 8 8 10 34 26 32 38 -6 5 -18
14 -29 18 -25 10 10 0 -47 -29 -169 -26 -107 -98 -284 -114 -281 -6 2 -7 -5
-4 -14 4 -11 3 -14 -5 -9 -8 4 -10 2 -6 -8 5 -12 -28 -75 -57 -110 -5 -6 -28
-39 -51 -74 -31 -47 -45 -61 -59 -57 -9 3 -21 0 -25 -6 -5 -9 -2 -10 9 -6 28
10 20 -1 -44 -71 -125 -137 -335 -281 -395 -269 -40 7 -27 -10 49 -66 188
-138 262 -167 431 -167 74 0 131 5 166 16 74 22 211 86 263 124 26 18 50 28
59 25 10 -4 24 3 37 16 17 19 21 20 21 6 0 -13 9 -17 45 -17 41 0 45 2 45 25
0 16 6 25 15 25 12 0 15 -16 15 -80 0 -64 -3 -80 -15 -80 -11 0 -15 11 -15 40
l0 40 -40 0 -40 0 0 -40 c0 -22 4 -40 9 -40 9 0 6 -251 -4 -293 -7 -26 -9 -27
-86 -28 -132 -2 -124 0 -127 -41 -3 -34 -1 -38 21 -38 22 0 25 -5 29 -40 l4
-40 -43 0 -43 0 0 -40 c0 -22 5 -40 10 -40 6 0 10 -7 10 -15 0 -8 -4 -15 -9
-15 -5 0 -12 -12 -14 -27 -2 -16 -5 17 -6 73 -2 165 -11 224 -32 224 -18 0
-18 -8 -12 -120 l6 -120 -31 0 c-31 0 -32 2 -32 40 0 33 3 40 19 40 18 0 20 7
18 95 -2 91 -5 100 -34 96 -14 -2 -35 33 -26 43 3 3 11 6 17 6 6 0 4 -5 -4
-11 -12 -9 -11 -10 5 -4 11 3 32 9 48 12 23 5 27 10 27 39 0 27 4 34 20 34 13
0 20 7 20 20 0 17 -3 19 -19 11 -10 -6 -21 -7 -25 -4 -3 3 -6 1 -6 -6 0 -9 -8
-11 -25 -7 -18 5 -25 2 -25 -8 0 -16 -24 -28 -44 -20 -21 8 -28 -12 -18 -50
11 -39 7 -48 -33 -69 l-30 -16 35 -2 c19 -1 42 -2 50 -3 12 -1 16 -18 18 -78
l3 -78 -41 -1 c-22 -1 -48 -2 -57 -3 -16 -1 -18 11 -21 102 -1 57 -7 102 -12
102 -12 0 -13 -10 -10 -72 2 -47 1 -48 -29 -48 -21 0 -31 -5 -31 -15 0 -8 -7
-15 -15 -15 -8 0 -15 7 -15 15 0 12 -15 15 -75 15 l-75 0 0 -40 0 -40 50 0
c38 0 50 4 50 15 0 8 7 15 15 15 8 0 15 -7 15 -15 0 -11 14 -15 58 -16 31 -1
60 -1 65 0 4 0 7 -17 7 -39 0 -29 4 -40 15 -40 11 0 15 -11 15 -40 0 -29 -4
-40 -15 -40 -12 0 -15 -15 -15 -75 0 -42 -4 -76 -10 -76 -5 -1 -14 -3 -20 -4
-5 -1 -21 -3 -35 -4 -17 -1 -25 -7 -25 -20 0 -16 5 -17 41 -11 23 4 44 12 48
18 3 5 23 11 43 14 29 3 38 0 41 -14 5 -18 -12 -42 -35 -51 -7 -2 -9 -8 -5
-13 4 -5 12 -2 17 6 13 22 23 5 11 -18 -7 -13 -8 -29 -2 -44 l10 -23 0 23 c1
12 6 22 11 22 6 0 10 7 10 15 0 11 13 15 53 14 82 0 89 2 74 19 -10 13 -8 14
13 8 22 -6 23 -5 7 4 -15 10 -23 8 -41 -9 -28 -26 -46 -27 -46 -1 0 11 5 20
10 20 6 0 20 9 32 20 l22 20 -36 0 c-28 0 -38 -5 -43 -20 -8 -26 -51 -28 -53
-2 0 9 4 30 10 45 9 23 16 27 33 23 19 -5 24 -1 29 25 3 17 6 44 6 60 0 16 5
29 10 29 6 0 10 -18 10 -40 0 -40 0 -40 39 -40 40 0 40 0 43 -42 2 -28 8 -43
16 -43 8 0 21 -9 29 -20 15 -19 15 -19 9 8 -8 34 -1 48 20 40 9 -3 12 -12 9
-24 -4 -13 -1 -19 8 -19 8 0 20 -6 26 -14 9 -11 -8 -22 -95 -60 -59 -26 -121
-50 -138 -53 -17 -3 -35 -9 -41 -13 -23 -18 -123 -39 -170 -36 -27 2 -44 2
-37 -1 18 -7 15 -20 -8 -26 -14 -4 -24 4 -39 29 -11 19 -27 34 -36 34 -24 0
-18 -18 11 -33 17 -9 23 -17 15 -21 -6 -4 -11 -4 -11 -1 0 3 -6 0 -14 -7 -8
-7 -12 -16 -10 -20 2 -4 -1 -10 -7 -14 -8 -4 -9 -3 -5 4 10 16 -26 15 -43 0
-11 -10 -13 -10 -7 0 4 6 2 12 -3 12 -6 0 -11 17 -11 39 0 28 -7 46 -27 67
l-28 29 -3 -24 c-2 -13 2 -27 8 -31 7 -4 16 -26 20 -48 5 -32 4 -42 -7 -46
-24 -10 -55 -7 -48 4 3 6 -1 10 -9 10 -9 0 -15 -5 -13 -11 1 -6 -4 -14 -10
-16 -7 -3 -13 0 -13 7 0 8 -15 9 -47 6 -31 -4 -39 -3 -23 2 25 8 25 8 3 14
-13 3 -23 2 -23 -4 0 -6 -10 -8 -23 -5 -31 8 -58 -8 -28 -18 11 -3 25 -4 30 0
6 3 19 -2 31 -12 20 -17 19 -18 -42 -30 -35 -7 -97 -18 -138 -23 -95 -13 -458
-12 -465 1 -4 5 -14 9 -23 8 -14 0 -13 -2 3 -9 14 -6 1 -9 -43 -9 -54 -1 -67
2 -83 22 -10 12 -18 16 -19 10 0 -7 -7 -13 -15 -13 -8 0 -15 -5 -15 -11 0 -5
4 -8 9 -5 4 3 6 -7 2 -22 -5 -24 -6 -25 -9 -5 -3 23 -32 54 -32 35 0 -6 4 -13
9 -16 11 -7 11 -56 1 -56 -5 0 -10 4 -12 10 -1 5 -3 -37 -3 -94 0 -58 1 -103
3 -101 2 2 7 25 12 52 7 47 8 46 11 -32 l3 -80 6 85 c4 53 6 -2 6 -146 -1
-147 3 -231 9 -232 6 0 28 -5 50 -11 24 -7 144 -10 305 -8 l265 2 68 33 c37
18 67 38 67 44 0 5 7 7 16 4 12 -5 15 -2 10 10 -4 9 -1 23 5 30 12 14 29 10
29 -7 0 -6 -4 -7 -10 -4 -6 3 -7 -1 -4 -9 3 -9 7 -16 9 -16 11 0 34 53 39 90
5 36 4 40 -4 21 -17 -38 -20 -19 -5 24 10 28 14 33 15 18 0 -13 5 -23 11 -23
8 0 9 -11 5 -32 -3 -17 -3 -28 1 -24 7 7 13 146 6 146 -2 0 -8 -10 -13 -22 -8
-20 -9 -18 -8 14 l2 37 156 1 c476 1 1027 100 1389 249 41 17 84 31 97 31 13
0 27 8 33 17 8 15 11 15 27 3 16 -13 17 -13 12 1 -5 12 2 15 27 15 18 0 52 8
75 19 31 14 43 16 49 7 5 -9 11 -5 20 12 9 16 25 26 51 30 21 3 41 13 44 22 4
11 13 14 31 10 20 -5 25 -3 25 14 0 11 7 20 15 20 29 0 66 24 62 40 -3 12 4
15 35 12 33 -4 40 -1 45 17 3 12 17 24 32 28 14 3 51 19 81 36 58 31 89 54 56
41 -13 -5 -17 -4 -12 4 4 7 16 12 27 12 14 0 18 -4 13 -12 -5 -9 -2 -9 9 1 9
7 17 20 17 27 0 8 5 14 10 14 6 0 30 18 54 40 23 22 46 37 49 33 11 -10 38 19
33 34 -4 10 -1 13 13 8 16 -5 18 -2 14 16 -5 20 -3 21 25 17 20 -3 32 0 32 7
0 12 20 30 63 58 20 13 27 25 24 38 -3 12 0 19 9 19 8 0 14 -5 14 -12 0 -12
15 -2 15 10 1 18 19 32 41 32 14 0 24 6 24 14 0 8 7 16 15 20 8 3 20 16 26 29
6 14 28 34 49 46 40 22 110 87 110 101 0 5 13 21 30 36 16 16 34 41 41 56 6
15 20 30 30 33 10 4 19 14 19 23 0 9 9 28 20 42 11 14 20 30 20 35 0 6 14 23
30 39 17 16 39 45 50 65 10 21 25 43 33 50 9 7 13 21 9 33 -3 13 1 24 12 30
17 9 22 38 7 38 -18 0 2 42 24 50 24 9 69 85 62 105 -3 6 3 17 14 23 11 7 16
18 13 27 -4 10 0 15 14 15 21 0 32 24 32 73 0 15 4 27 9 27 5 0 11 18 15 40 5
30 11 40 25 40 15 0 20 10 25 48 8 52 42 160 57 179 7 7 6 12 -2 15 -9 3 -9 9
-1 24 11 19 11 19 13 -1 0 -11 5 -5 9 15 5 19 5 36 1 38 -14 5 12 82 27 82 9
0 13 7 9 19 -3 11 1 29 9 40 9 13 10 21 3 23 -7 2 -5 18 5 48 9 25 16 55 16
67 0 12 6 24 13 27 10 5 10 7 0 12 -15 7 -17 40 -3 49 6 3 10 29 10 57 0 41 3
51 20 55 22 6 23 11 20 158 -1 50 4 160 10 245 14 189 15 631 1 639 -5 3 -12
44 -16 91 -4 47 -15 115 -26 151 -10 36 -19 86 -19 110 0 24 -6 56 -14 71 -10
19 -11 29 -3 37 8 8 5 15 -11 27 -12 8 -22 23 -22 33 0 10 -3 21 -7 25 -4 4
-8 15 -8 24 -1 9 -2 29 -3 45 -1 15 -8 27 -15 27 -9 0 -12 10 -9 30 3 23 0 30
-12 30 -9 0 -16 8 -16 20 0 11 -9 29 -21 41 -12 12 -18 27 -14 38 3 11 -1 26
-10 34 -8 9 -13 21 -10 29 6 14 -28 70 -41 69 -5 0 -9 9 -10 22 -1 12 -2 27
-3 34 -2 17 -29 5 -34 -15 -4 -16 -5 -16 -6 0 0 9 4 20 9 23 6 3 10 15 10 25
0 14 -5 18 -17 13 -16 -6 -16 -5 -4 10 11 13 11 20 1 32 -6 8 -17 13 -23 12
-6 -1 -13 8 -15 20 -2 12 -10 27 -18 33 -11 10 -17 6 -29 -21 -11 -27 -14 -30
-15 -12 0 12 -5 25 -10 28 -6 4 -8 16 -5 28 4 14 3 17 -2 10 -6 -9 -15 0 -30
30 -24 50 -122 203 -169 265 -18 24 -32 49 -30 55 1 7 1 9 -1 6 -2 -3 -61 51
-131 121 -141 141 -267 239 -416 323 -272 153 -504 209 -871 207 -218 -1 -185
-1 -440 3 -121 2 -389 1 -595 -2z m200 -60 c0 -6 -4 -13 -10 -16 -5 -3 -10 1
-10 9 0 9 5 16 10 16 6 0 10 -4 10 -9z m1283 -36 c21 -19 36 -39 32 -45 -10
-17 -25 -11 -18 7 5 12 2 15 -10 10 -12 -4 -14 -2 -10 10 4 11 3 14 -5 9 -7
-4 -15 -1 -18 8 -3 9 -18 16 -33 17 -23 0 -24 1 -6 9 28 12 26 13 68 -25z m83
-82 c-8 -8 -36 10 -36 25 0 13 3 12 20 -3 11 -10 18 -20 16 -22z m-92 -18 c3
-8 1 -15 -4 -15 -6 0 -10 7 -10 15 0 8 2 15 4 15 2 0 6 -7 10 -15z m136 -32
c33 -41 120 -203 120 -225 0 -7 -17 21 -38 62 -55 110 -74 140 -106 171 -16
16 -24 29 -18 29 6 0 24 -17 42 -37z m-1627 -27 c26 -5 37 -12 36 -24 0 -10
-3 -12 -6 -4 -2 6 -13 12 -23 12 -26 0 -70 21 -70 33 0 6 5 6 13 0 6 -6 29
-13 50 -17z m117 4 c0 -5 -9 -10 -20 -10 -11 0 -20 5 -20 10 0 6 9 10 20 10
11 0 20 -4 20 -10z m0 -30 c0 -5 -6 -10 -14 -10 -8 0 -18 5 -21 10 -3 6 3 10
14 10 12 0 21 -4 21 -10z m-83 -62 c-3 -8 -6 -5 -6 6 -1 11 2 17 5 13 3 -3 4
-12 1 -19z m79 -47 c6 -12 21 -29 32 -37 18 -13 20 -12 15 6 -3 11 0 20 6 20
11 0 13 -5 15 -32 1 -12 70 -58 85 -58 3 1 -7 12 -24 25 -23 19 -26 25 -12 25
9 0 17 6 17 13 1 7 6 5 14 -6 11 -14 15 -15 19 -5 2 7 3 4 1 -6 -2 -11 6 -30
17 -44 14 -18 16 -28 8 -33 -8 -5 -7 -8 2 -11 8 -3 12 -8 9 -11 -4 -4 -49 21
-100 55 -52 34 -121 74 -153 90 -33 16 -56 32 -53 35 3 3 23 -4 45 -15 24 -13
43 -17 46 -12 3 6 2 10 -2 10 -5 0 -18 7 -29 15 -18 14 -18 15 6 6 14 -4 30
-18 36 -30z m104 -35 c0 -3 -4 -8 -10 -11 -5 -3 -10 -1 -10 4 0 6 5 11 10 11
6 0 10 -2 10 -4z m137 -2 c-3 -3 -12 -4 -19 -1 -8 3 -5 6 6 6 11 1 17 -2 13
-5z m-2 -84 c3 -6 -1 -7 -9 -4 -18 7 -21 14 -7 14 6 0 13 -4 16 -10z m1396
-37 c-12 -20 -14 -14 -5 12 4 9 9 14 11 11 3 -2 0 -13 -6 -23z m-1370 -42 c30
-26 39 -29 79 -25 43 5 44 5 25 -11 -16 -13 -17 -17 -6 -24 8 -5 21 -7 30 -4
12 4 13 3 3 -5 -11 -7 -11 -10 2 -15 9 -4 16 -2 16 3 0 6 7 10 17 10 14 0 14
-2 -2 -20 -10 -11 -21 -17 -25 -15 -5 3 -10 0 -12 -6 -2 -6 -26 9 -53 34 -28
24 -66 58 -85 75 -19 17 -32 32 -29 32 4 0 21 -13 40 -29z m1462 -154 c2 -23
2 -31 0 -18 -4 20 -7 22 -15 10 -7 -10 -8 -6 -5 16 7 38 -2 87 -14 79 -11 -6
-11 -1 -2 23 6 14 10 9 19 -25 7 -23 15 -61 17 -85z m-1263 54 c0 -6 -9 -17
-21 -25 -12 -8 -18 -19 -14 -26 6 -9 2 -9 -14 -1 -28 15 -27 23 7 43 31 20 42
22 42 9z m-4 -66 c-4 -14 -2 -25 3 -25 5 0 11 9 14 20 4 17 14 20 66 20 34 0
61 -4 61 -10 0 -5 -4 -10 -10 -10 -5 0 -10 -15 -10 -34 0 -31 -2 -33 -30 -30
-23 3 -33 -1 -38 -16 -7 -18 -10 -16 -37 17 -29 36 -43 93 -23 93 6 0 7 -11 4
-25z m162 -42 c-2 -9 -8 -18 -15 -20 -7 -3 -9 3 -6 16 6 25 26 28 21 4z m22
-3 c0 -11 -4 -20 -9 -20 -5 0 -7 9 -4 20 3 11 7 20 9 20 2 0 4 -9 4 -20z
m1100 -16 c0 -8 -19 -13 -24 -6 -3 5 1 9 9 9 8 0 15 -2 15 -3z m-1199 -35 c8
-15 8 -19 0 -15 -16 10 -14 -6 4 -31 22 -32 108 -204 103 -208 -2 -2 -26 40
-53 93 -28 53 -58 106 -68 117 -10 10 -15 25 -12 33 3 7 5 18 5 23 0 15 9 10
21 -12z m43 -51 c15 -21 16 -21 11 -3 -4 15 1 13 21 -10 20 -23 25 -25 20 -10
-3 11 -1 27 4 35 8 12 10 10 10 -10 0 -14 -3 -35 -6 -48 l-7 -23 -12 23 c-6
13 -17 22 -25 20 -13 -3 -50 26 -50 40 0 15 17 8 34 -14z m321 -8 c-3 -5 -10
-10 -16 -10 -5 0 -9 5 -9 10 0 6 7 10 16 10 8 0 12 -4 9 -10z m-285 -66 c0 -8
3 -13 8 -11 4 3 7 -6 7 -19 0 -13 -1 -24 -2 -24 -4 0 -33 64 -33 72 0 5 5 6
10 3 6 -3 10 -13 10 -21z m-2283 -31 c-12 -3 -16 -10 -13 -20 6 -13 4 -14 -9
-3 -13 11 -13 15 -3 21 7 5 20 8 28 8 10 -1 9 -3 -3 -6z m10 -60 c5 3 15 1 23
-4 12 -8 12 -12 2 -16 -10 -4 -10 -8 -1 -19 6 -8 8 -14 3 -13 -5 1 -29 24 -54
53 -28 32 -33 40 -13 22 17 -15 35 -26 40 -23z m2370 -10 c-3 -10 -5 -4 -5 12
0 17 2 24 5 18 2 -7 2 -21 0 -30z m1923 16 c0 -11 -4 -18 -10 -14 -5 3 -7 12
-3 20 7 21 13 19 13 -6z m-1975 2 c3 -5 1 -12 -5 -16 -5 -3 -10 1 -10 9 0 18
6 21 15 7z m35 -11 c0 -5 -4 -10 -10 -10 -5 0 -10 5 -10 10 0 6 5 10 10 10 6
0 10 -4 10 -10z m1923 -35 c-3 -9 -8 -14 -10 -11 -3 3 -2 9 2 15 9 16 15 13 8
-4z m-1955 -42 c0 -34 -1 -36 -10 -14 -5 14 -6 31 -4 38 9 23 14 14 14 -24z
m42 16 c0 8 2 12 5 10 2 -3 -3 -23 -11 -44 -14 -38 -15 -38 -10 -7 4 20 2 31
-4 27 -6 -3 -7 1 -3 10 5 13 7 14 14 3 7 -11 9 -10 9 1z m1947 -61 c-3 -8 -6
-5 -6 6 -1 11 2 17 5 13 3 -3 4 -12 1 -19z m30 -10 c-3 -8 -6 -5 -6 6 -1 11 2
17 5 13 3 -3 4 -12 1 -19z m-1981 -54 c1 -39 32 -107 58 -127 6 -5 1 -5 -11
-2 -19 5 -22 3 -16 -12 3 -10 10 -23 15 -30 5 -6 5 -14 0 -17 -17 -10 -28 17
-45 104 -9 47 -20 94 -23 106 -3 13 -1 21 8 21 8 0 13 -15 14 -43z m74 26 c0
-5 -7 -10 -16 -10 -8 0 -13 -4 -10 -9 7 -10 -22 -24 -34 -16 -4 3 -6 14 -3 25
4 14 14 20 34 20 16 0 29 -4 29 -10z m1908 -45 c-3 -3 -9 2 -12 12 -6 14 -5
15 5 6 7 -7 10 -15 7 -18z m-1888 -35 c0 -5 -2 -10 -4 -10 -3 0 -8 5 -11 10
-3 6 -1 10 4 10 6 0 11 -4 11 -10z m1918 -55 c-3 -3 -9 2 -12 12 -6 14 -5 15
5 6 7 -7 10 -15 7 -18z m-1641 -77 c-2 -13 -4 -3 -4 22 0 25 2 35 4 23 2 -13
2 -33 0 -45z m-293 -3 c-4 -8 -8 -15 -10 -15 -2 0 -4 7 -4 15 0 8 4 15 10 15
5 0 7 -7 4 -15z m413 -37 c-3 -8 -6 -5 -6 6 -1 11 2 17 5 13 3 -3 4 -12 1 -19z
m-400 -95 c-3 -10 -5 -4 -5 12 0 17 2 24 5 18 2 -7 2 -21 0 -30z m400 -25 c-2
-13 -4 -3 -4 22 0 25 2 35 4 23 2 -13 2 -33 0 -45z m-420 -10 c-3 -7 -5 -2 -5
12 0 14 2 19 5 13 2 -7 2 -19 0 -25z m143 -49 c0 -32 -3 -39 -20 -39 -17 0
-20 -7 -20 -40 0 -39 -1 -40 -34 -40 -44 0 -49 9 -51 84 -1 34 0 46 2 29 4
-31 7 -33 44 -33 32 0 39 3 39 20 0 16 -7 20 -35 20 -19 0 -35 4 -35 9 0 5 -2
15 -5 23 -4 10 8 12 55 10 l60 -4 0 -39z m120 -189 c0 -5 -5 -10 -11 -10 -5 0
-7 5 -4 10 3 6 8 10 11 10 2 0 4 -4 4 -10z m160 0 c0 -5 -9 -10 -20 -10 -17 0
-20 -7 -20 -40 0 -22 5 -40 10 -40 6 0 10 -18 10 -40 0 -71 -18 -43 -25 40 -5
58 -11 80 -21 80 -8 0 -14 5 -14 10 0 6 18 10 40 10 22 0 40 -4 40 -10z m-415
-10 c3 -5 1 -10 -4 -10 -6 0 -11 5 -11 10 0 6 2 10 4 10 3 0 8 -4 11 -10z
m255 -160 c0 -64 -3 -80 -15 -80 -12 0 -15 16 -15 80 0 64 3 80 15 80 12 0 15
-16 15 -80z m87 18 c-2 -13 -4 -3 -4 22 0 25 2 35 4 23 2 -13 2 -33 0 -45z
m-203 -130 c20 -285 20 -290 0 -286 -17 3 -19 13 -17 118 2 75 -1 116 -8 121
-13 8 -3 139 10 139 5 0 11 -42 15 -92z m203 0 c-3 -7 -5 -2 -5 12 0 14 2 19
5 13 2 -7 2 -19 0 -25z m650 -185 c-1 -43 -3 -10 -3 72 0 83 2 118 3 78 2 -40
2 -107 0 -150z m-4563 68 c3 -5 -1 -11 -9 -14 -9 -4 -12 -1 -8 9 6 16 10 17
17 5z m3606 -15 c0 -3 -4 -8 -10 -11 -5 -3 -10 -1 -10 4 0 6 5 11 10 11 6 0
10 -2 10 -4z m587 -58 c-2 -13 -4 -3 -4 22 0 25 2 35 4 23 2 -13 2 -33 0 -45z
m350 25 c-3 -10 -5 -4 -5 12 0 17 2 24 5 18 2 -7 2 -21 0 -30z m-970 -5 c-3
-7 -5 -2 -5 12 0 14 2 19 5 13 2 -7 2 -19 0 -25z m-2 -115 c-9 -76 -17 -61 -8
18 3 35 8 58 11 51 2 -7 1 -38 -3 -69z m45 68 c0 -5 -7 -11 -15 -15 -9 -3 -15
0 -15 9 0 8 7 15 15 15 8 0 15 -4 15 -9z m30 0 c0 -6 -4 -13 -10 -16 -5 -3
-10 1 -10 9 0 9 5 16 10 16 6 0 10 -4 10 -9z m97 -53 c-2 -13 -4 -3 -4 22 0
25 2 35 4 23 2 -13 2 -33 0 -45z m-3812 33 c-3 -6 -11 -11 -17 -11 -6 0 -6 6
2 15 14 17 26 13 15 -4z m-55 -71 c-6 -12 -14 -20 -17 -17 -2 3 1 14 8 26 17
26 24 19 9 -9z m3950 -20 l0 -40 -40 0 c-39 0 -40 1 -40 33 0 19 3 37 7 40 3
4 21 7 40 7 32 0 33 -1 33 -40z m0 -101 c0 -17 -5 -20 -37 -17 -27 2 -39 8
-41 21 -3 14 4 17 37 17 35 0 41 -3 41 -21z m-4024 -70 c-9 -22 -15 -27 -15
-16 -1 21 18 61 25 54 3 -3 -2 -20 -10 -38z m2851 -34 c-1 -21 -4 -30 -9 -22
-11 17 -10 57 1 57 5 0 9 -16 8 -35z m1090 -62 c-2 -16 -4 -5 -4 22 0 28 2 40
4 28 2 -13 2 -35 0 -50z m820 5 c0 -48 -2 -56 -8 -35 -6 24 -2 97 6 97 2 0 3
-28 2 -62z m-1957 22 c0 -11 -4 -20 -10 -20 -5 0 -10 9 -10 20 0 11 5 20 10
20 6 0 10 -9 10 -20z m38 -40 c-1 -23 -1 -24 -5 -2 -2 12 -8 22 -13 22 -5 0
-7 7 -3 16 8 22 23 -2 21 -36z m40 -45 c0 -16 -2 -15 -8 5 -6 18 -8 20 -9 7
-1 -10 -7 -25 -15 -33 -13 -12 -16 -11 -21 7 -4 11 -4 23 -1 26 3 4 6 0 6 -8
1 -20 29 32 31 56 2 24 17 -29 17 -60z m2929 53 c-3 -8 -6 -5 -6 6 -1 11 2 17
5 13 3 -3 4 -12 1 -19z m-1835 -108 c5 0 8 -13 8 -30 0 -18 -5 -29 -12 -27
-19 3 -38 45 -38 81 l1 31 17 -27 c9 -16 20 -28 24 -28z m-4093 -14 c-9 -8
-10 -7 -5 7 3 10 7 24 7 30 1 7 3 4 6 -7 3 -10 -1 -23 -8 -30z m3021 -10 c0
-13 -7 -26 -14 -29 -10 -4 -13 -1 -10 9 2 7 6 21 9 29 7 23 15 18 15 -9z
m1841 -130 c-6 -61 -18 -133 -26 -161 l-14 -50 1 45 c1 25 5 47 9 50 8 6 13
45 26 185 4 50 9 79 11 66 2 -13 -1 -74 -7 -135z m-1905 112 c-9 -12 -16 -19
-16 -15 0 11 24 47 28 42 2 -2 -3 -14 -12 -27z m1312 -15 c-10 -2 -26 -2 -35
0 -10 3 -2 5 17 5 19 0 27 -2 18 -5z m-1268 -105 c0 -49 -3 -58 -17 -58 -14 0
-19 10 -21 50 -3 55 14 103 29 79 5 -8 9 -40 9 -71z m-50 32 c0 -5 -5 -10 -11
-10 -5 0 -7 5 -4 10 3 6 8 10 11 10 2 0 4 -4 4 -10z m80 -171 c0 -99 -3 -178
-7 -176 -5 3 -6 -15 -4 -40 2 -32 0 -43 -8 -39 -6 4 -11 16 -11 27 0 11 -6 30
-13 42 -11 17 -11 40 -3 107 l10 85 12 -85 11 -85 2 173 c0 94 3 172 6 172 3
0 5 -81 5 -181z m1197 19 c-2 -13 -4 -3 -4 22 0 25 2 35 4 23 2 -13 2 -33 0
-45z m58 -25 c8 -86 0 -301 -10 -311 -3 -3 -7 -3 -10 -1 -14 14 -10 399 4 399
5 0 12 -39 16 -87z m535 77 c0 -5 -2 -10 -4 -10 -3 0 -8 5 -11 10 -3 6 -1 10
4 10 6 0 11 -4 11 -10z m-1855 -162 c-4 -51 -11 -97 -16 -102 -5 -6 -9 -1 -9
12 0 12 -4 22 -10 22 -18 0 -11 60 10 77 12 11 20 30 20 50 0 18 3 33 6 33 3
0 3 -42 -1 -92z m1852 -46 c-8 -68 -29 -159 -34 -145 -2 7 3 50 11 96 19 98
19 110 6 102 -6 -4 -7 1 -3 11 12 31 26 -14 20 -64z m1070 46 c-3 -7 -5 -2 -5
12 0 14 2 19 5 13 2 -7 2 -19 0 -25z m-1660 -105 c-2 -21 -4 -4 -4 37 0 41 2
58 4 38 2 -21 2 -55 0 -75z m1633 -3 l-11 -25 6 25 c2 14 5 36 6 50 l2 25 4
-25 c2 -14 -1 -37 -7 -50z m-2063 -112 c-3 -8 -6 -5 -6 6 -1 11 2 17 5 13 3
-3 4 -12 1 -19z m980 -10 c-3 -8 -6 -5 -6 6 -1 11 2 17 5 13 3 -3 4 -12 1 -19z
m-992 -18 c4 -6 1 -17 -5 -25 -7 -8 -10 -20 -7 -27 3 -8 6 -6 6 5 1 24 21 12
21 -13 0 -24 -27 -33 -39 -12 -10 19 -3 82 10 82 4 0 11 -5 14 -10z m965 -75
c1 6 4 20 5 33 1 12 5 25 9 29 38 38 -105 -393 -187 -562 -13 -27 -32 -68 -43
-90 -27 -60 -144 -276 -167 -308 -10 -16 -22 -26 -25 -23 -2 3 1 12 7 20 7 8
9 20 5 27 -4 7 -2 10 6 7 15 -5 74 97 66 115 -2 7 -5 4 -5 -5 -1 -10 -5 -18
-11 -18 -13 0 -13 1 6 39 10 20 21 30 30 27 16 -6 36 26 29 46 -3 8 1 31 10
53 8 22 13 29 10 15 -3 -14 -8 -36 -11 -50 -3 -14 14 13 38 60 70 139 107 227
104 247 -2 10 -1 11 2 3 5 -16 44 93 43 123 0 9 4 17 8 17 12 0 44 99 37 116
-4 9 -2 13 5 8 8 -4 9 4 4 27 -4 24 -3 30 4 19 7 -10 9 1 7 40 -3 48 -3 50 4
15 4 -22 8 -35 10 -30z m-610 5 c0 -13 -20 -13 -40 0 -12 8 -9 10 13 10 15 0
27 -4 27 -10z m80 -10 c0 -13 -7 -20 -20 -20 -13 0 -20 7 -20 20 0 13 7 20 20
20 13 0 20 -7 20 -20z m-450 -20 c10 -18 7 -24 -12 -22 -3 1 -11 -5 -17 -12
-9 -11 -6 -12 14 -8 15 2 25 0 25 -7 0 -6 10 -11 23 -11 22 0 22 0 -2 -13 -32
-16 -39 -37 -12 -37 32 0 33 -17 1 -24 -48 -9 -35 -26 20 -26 28 0 50 -4 50
-10 0 -5 -4 -10 -10 -10 -5 0 -10 -4 -10 -10 0 -6 43 -10 110 -10 107 0 110 1
111 23 l0 22 11 -22 c14 -28 44 -30 53 -3 4 12 15 20 28 20 12 0 32 3 45 6 13
4 22 2 22 -5 0 -6 -6 -11 -14 -11 -9 0 -15 -20 -18 -69 -3 -44 -11 -75 -21
-85 -22 -23 -27 -20 -27 14 0 17 -4 30 -10 30 -5 0 -10 -18 -10 -40 0 -38 2
-40 30 -40 17 0 30 -4 30 -9 0 -14 -31 -22 -44 -12 -25 20 -88 -28 -68 -52 7
-8 7 -18 2 -27 -6 -8 -10 -25 -10 -37 0 -14 -6 -23 -15 -23 -11 0 -15 -11 -15
-40 0 -29 -4 -40 -15 -40 -11 0 -15 11 -15 40 0 22 5 40 10 40 6 0 10 18 10
40 0 22 -4 40 -10 40 -5 0 -10 18 -10 40 l0 40 -50 0 -50 0 0 -59 c0 -43 -4
-60 -15 -65 -8 -3 -15 -12 -15 -21 0 -8 -4 -15 -10 -15 -5 0 -10 -17 -10 -37
0 -31 5 -40 25 -50 14 -6 25 -7 25 -2 0 5 -4 9 -10 9 -5 0 -10 18 -10 40 0 33
3 40 20 40 17 0 20 -7 20 -40 0 -22 5 -40 10 -40 6 0 10 18 10 40 0 29 4 40
15 40 17 0 18 -11 9 -99 -7 -59 -8 -61 -35 -61 -27 0 -29 -3 -29 -40 0 -33 -3
-40 -20 -40 -18 0 -20 7 -21 78 0 42 -3 71 -6 65 -2 -7 -16 -13 -29 -13 -17 0
-24 -6 -24 -20 0 -15 -7 -20 -25 -20 -18 0 -25 5 -25 20 0 17 -7 20 -45 20
-41 0 -45 -2 -45 -25 0 -21 -5 -25 -30 -25 -28 0 -30 -2 -30 -40 0 -22 5 -40
10 -40 6 0 10 -33 10 -80 l0 -80 30 0 c28 0 30 -2 30 -40 0 -36 3 -40 25 -40
22 0 25 4 26 38 1 50 13 81 24 62 5 -9 4 -15 -3 -18 -8 -2 -12 -31 -12 -83 l0
-79 -30 0 -30 0 0 -100 c0 -60 -4 -100 -10 -100 -5 0 -10 9 -10 20 0 11 -4 20
-10 20 -6 0 -10 33 -10 80 l0 80 -30 0 -30 0 0 -80 c0 -47 -4 -80 -10 -80 -5
0 -10 -18 -10 -40 0 -33 -3 -40 -20 -40 -17 0 -20 7 -20 40 0 33 -3 40 -20 40
-17 0 -20 -7 -20 -40 0 -28 -4 -40 -14 -40 -10 0 -16 -13 -18 -35 -2 -20 -7
-35 -13 -35 -6 0 -10 58 -10 153 l0 152 28 3 28 3 -5 77 c-6 101 -16 162 -26
162 -4 0 -11 16 -14 35 -7 36 -20 45 -30 23 -3 -7 -3 -2 0 12 5 23 2 21 -31
-14 -51 -55 -54 -38 -4 20 43 51 59 63 59 46 0 -6 -6 -12 -12 -15 -10 -3 -10
-7 -1 -17 9 -10 13 -8 18 13 4 14 4 31 0 36 -3 6 -1 20 6 32 9 18 13 19 21 8
7 -10 8 -8 3 8 -4 14 0 26 13 35 11 7 20 15 20 18 0 3 6 19 13 35 l12 30 8
-25 c8 -22 8 -22 4 6 -2 17 2 42 9 55 8 13 21 38 30 54 10 20 16 24 16 13 0
-11 8 -18 20 -18 13 0 20 -7 20 -20 0 -11 7 -20 15 -20 10 0 15 10 15 29 0 16
3 38 6 48 5 15 4 15 -5 3 -9 -13 -11 -13 -11 2 0 9 5 19 10 21 6 3 5 4 -2 3
-7 -2 -12 -14 -11 -27 1 -18 -4 -25 -18 -25 -29 0 -34 37 -11 87 27 61 76 199
104 292 12 42 26 77 30 77 4 0 12 -9 18 -20z m115 -44 c-6 -56 -4 -66 12 -75
14 -8 11 -9 -17 -4 -19 3 -36 6 -36 7 -1 1 -5 21 -9 45 -5 31 -4 42 4 37 6 -4
11 -1 12 6 0 10 2 10 6 1 9 -24 23 -13 23 17 0 17 3 30 6 30 4 0 3 -29 -1 -64z
m355 0 c0 -3 -4 -8 -10 -11 -5 -3 -10 -1 -10 4 0 6 5 11 10 11 6 0 10 -2 10
-4z m-40 -46 c0 -23 -4 -30 -20 -30 -16 0 -20 7 -20 30 0 23 4 30 20 30 16 0
20 -7 20 -30z m1587 8 c-3 -8 -6 -5 -6 6 -1 11 2 17 5 13 3 -3 4 -12 1 -19z
m-1103 -30 c4 -17 2 -28 -4 -28 -5 0 -10 14 -10 32 0 36 4 35 14 -4z m1092
-14 c-4 -9 -9 -15 -11 -12 -3 3 -3 13 1 22 4 9 9 15 11 12 3 -3 3 -13 -1 -22z
m-1116 -4 c0 -5 -4 -10 -10 -10 -5 0 -10 5 -10 10 0 6 5 10 10 10 6 0 10 -4
10 -10z m-15 -92 l-16 -43 7 40 c6 42 13 59 21 52 2 -3 -3 -25 -12 -49z m-84
-165 c-8 -15 -10 -15 -11 -2 0 17 10 32 18 25 2 -3 -1 -13 -7 -23z m17 -23
c-11 -28 -23 -49 -25 -47 -4 5 34 97 41 97 3 0 -5 -23 -16 -50z m-100 -125
c-3 -3 -9 2 -12 12 -6 14 -5 15 5 6 7 -7 10 -15 7 -18z m-19 -51 c1 11 3 17 6
14 4 -3 3 -18 -1 -32 -6 -25 -7 -25 -20 -9 -7 10 -13 36 -13 58 l1 40 13 -45
c7 -25 13 -36 14 -26z m-429 -80 c0 -9 -10 -14 -27 -14 -25 0 -26 1 -8 20 19
21 35 18 35 -6z m1707 -51 c-3 -10 -5 -4 -5 12 0 17 2 24 5 18 2 -7 2 -21 0
-30z m-1349 -24 c-3 -8 -7 -3 -11 10 -4 17 -3 21 5 13 5 -5 8 -16 6 -23z
m-328 -29 c0 -5 -18 -10 -40 -10 -22 0 -40 5 -40 10 0 6 18 10 40 10 22 0 40
-4 40 -10z m-630 -54 c0 -13 -7 -27 -16 -30 -24 -9 -29 0 -10 19 9 9 16 21 16
26 0 5 2 9 5 9 3 0 5 -11 5 -24z m875 -6 c17 -14 8 -47 -16 -53 -10 -3 -17 -1
-14 3 3 5 -8 19 -25 32 l-30 24 36 2 c20 2 42 -2 49 -8z m-970 -37 c0 -20 -4
-29 -12 -26 -9 4 -10 10 -2 25 16 30 2 34 -21 7 l-21 -24 17 28 c21 35 39 30
39 -10z m1005 2 c0 -9 -30 -65 -34 -65 -2 0 1 16 7 35 6 19 14 35 19 35 4 0 8
-2 8 -5z m-91 -119 c-9 -8 -10 -5 -5 14 3 14 6 32 7 40 1 8 4 2 6 -14 3 -16
-1 -34 -8 -40z m57 35 c20 16 18 4 -3 -17 -16 -15 -17 -15 -24 2 -3 11 -4 26
0 34 4 11 7 9 9 -8 3 -19 6 -21 18 -11z m-26 -50 c0 -4 -13 -25 -30 -46 -16
-21 -30 -33 -30 -28 0 5 9 18 20 28 11 10 22 26 25 36 7 20 15 25 15 10z m-42
-26 c-3 -3 -9 2 -12 12 -6 14 -5 15 5 6 7 -7 10 -15 7 -18z m-31 -80 c-15 -16
-19 -13 -11 9 3 9 10 13 15 10 5 -3 3 -11 -4 -19z m-27 -22 c0 -5 -9 -19 -19
-32 -14 -18 -20 -21 -26 -11 -6 9 -4 11 5 5 9 -6 10 -1 5 16 -5 19 -4 21 4 9
9 -13 11 -13 11 3 0 9 5 17 10 17 6 0 10 -3 10 -7z m-82 -63 c-7 -10 -14 -17
-17 -15 -4 4 18 35 25 35 2 0 -1 -9 -8 -20z m-204 -36 c3 -9 -2 -14 -14 -14
-17 0 -20 -7 -20 -40 0 -29 4 -40 15 -40 8 0 15 -9 15 -20 0 -16 -7 -20 -35
-20 -28 0 -35 -4 -35 -20 0 -12 8 -21 23 -24 29 -7 79 -3 95 7 20 13 14 2 -14
-24 -17 -16 -23 -18 -19 -7 6 15 3 16 -24 8 -17 -4 -35 -11 -41 -15 -6 -4 -7
1 -3 11 5 14 2 16 -20 10 -15 -3 -29 -1 -33 5 -3 6 -14 9 -24 6 -16 -4 -18 5
-22 72 -3 42 -1 80 4 86 5 5 24 8 43 6 21 -1 35 2 35 9 0 6 6 17 12 24 15 15
53 3 62 -20z m230 21 c-4 -8 -11 -15 -16 -15 -6 0 -5 6 2 15 7 8 14 15 16 15
2 0 1 -7 -2 -15z m-50 -61 c-9 -13 -18 -23 -20 -21 -7 6 21 55 28 51 4 -3 0
-16 -8 -30z m-69 16 c3 -5 1 -10 -4 -10 -6 0 -11 5 -11 10 0 6 2 10 4 10 3 0
8 -4 11 -10z m26 -37 c13 -16 12 -17 -3 -4 -10 7 -18 15 -18 17 0 8 8 3 21
-13z m1169 -7 c0 -2 -8 -10 -17 -17 -16 -13 -17 -12 -4 4 13 16 21 21 21 13z
m-2260 -16 c0 -5 -5 -10 -11 -10 -5 0 -7 5 -4 10 3 6 8 10 11 10 2 0 4 -4 4
-10z m1075 -20 c-10 -11 -23 -20 -28 -20 -6 0 -2 9 8 20 10 11 23 20 28 20 6
0 2 -9 -8 -20z m-67 6 c-2 -1 -10 -7 -19 -14 -13 -10 -18 -10 -22 0 -3 8 5 14
20 14 13 1 23 1 21 0z m-18 -51 c0 -12 -19 -12 -23 0 -4 9 -1 12 9 8 7 -3 14
-7 14 -8z m45 5 c-3 -5 -12 -10 -18 -10 -7 0 -6 4 3 10 19 12 23 12 15 0z
m-658 -22 c-3 -8 -6 -5 -6 6 -1 11 2 17 5 13 3 -3 4 -12 1 -19z m253 -12 c0
-2 -3 -11 -6 -20 -9 -23 -24 -20 -24 4 0 11 7 20 15 20 8 0 15 -2 15 -4z m315
-46 c-3 -5 -11 -10 -16 -10 -6 0 -7 5 -4 10 3 6 11 10 16 10 6 0 7 -4 4 -10z
m-275 -21 c0 -5 -7 -9 -15 -9 -8 0 -15 7 -15 15 0 9 6 12 15 9 8 -4 15 -10 15
-15z m185 -29 c3 -5 -1 -10 -9 -10 -9 0 -16 5 -16 10 0 6 4 10 9 10 6 0 13 -4
16 -10z m-309 -44 c9 -20 9 -24 -2 -20 -46 14 -46 13 -32 28 18 21 21 20 34
-8z m185 -20 c-9 -11 -9 -15 1 -19 10 -4 11 -7 1 -18 -11 -11 -13 -10 -13 4 0
9 -7 17 -15 17 -8 0 -15 5 -15 11 0 5 5 7 11 4 6 -4 13 3 16 15 4 14 9 18 16
11 7 -7 6 -15 -2 -25z m89 9 c-7 -8 -16 -15 -21 -15 -5 0 -1 8 9 18 20 22 31
19 12 -3z m-40 -33 c0 -4 -10 -13 -22 -21 -23 -14 -23 -14 -4 8 20 22 26 25
26 13z m-100 -67 c0 -8 -4 -17 -10 -20 -6 -4 -10 5 -10 20 0 15 4 24 10 20 6
-3 10 -12 10 -20z m-57 8 c-7 -2 -19 -2 -25 0 -7 3 -2 5 12 5 14 0 19 -2 13
-5z m94 1 c-3 -3 -12 -4 -19 -1 -8 3 -5 6 6 6 11 1 17 -2 13 -5z m-137 -14 c0
-5 -4 -10 -10 -10 -5 0 -10 5 -10 10 0 6 5 10 10 10 6 0 10 -4 10 -10z m46
-16 c-5 -12 -2 -15 11 -10 15 5 15 4 -1 -9 -27 -20 -33 -19 -30 8 3 28 2 27
15 27 6 0 8 -7 5 -16z m-36 -19 c0 -8 -4 -15 -10 -15 -5 0 -10 7 -10 15 0 8 5
15 10 15 6 0 10 -7 10 -15z m-37 -51 c-22 -16 -33 -18 -33 -4 0 6 7 10 15 10
8 0 15 5 15 11 0 5 5 7 11 4 6 -5 4 -12 -8 -21z m-49 -10 c9 -22 -3 -32 -14
-14 -12 19 -12 30 -1 30 5 0 12 -7 15 -16z m-84 -55 c13 -9 13 -10 0 -6 -8 2
-24 0 -35 -6 -18 -9 -19 -9 -6 6 16 20 21 20 41 6z m-80 -33 c0 -3 -4 -8 -10
-11 -5 -3 -10 -1 -10 4 0 6 5 11 10 11 6 0 10 -2 10 -4z m1400 -16 c0 -5 -2
-10 -4 -10 -3 0 -8 5 -11 10 -3 6 -1 10 4 10 6 0 11 -4 11 -10z m-1470 -24 c0
-3 -4 -8 -10 -11 -5 -3 -10 -1 -10 4 0 6 5 11 10 11 6 0 10 -2 10 -4z m1280
-66 c0 -5 -5 -10 -11 -10 -5 0 -7 5 -4 10 3 6 8 10 11 10 2 0 4 -4 4 -10z
m-70 -54 c0 -3 -4 -8 -10 -11 -5 -3 -10 -1 -10 4 0 6 5 11 10 11 6 0 10 -2 10
-4z m-184 -103 c-3 -4 -17 -8 -29 -10 -17 -2 -19 -1 -7 7 17 11 47 14 36 3z"/>
<path d="M7515 10762 c-3 -13 0 -30 6 -39 11 -13 15 -12 30 8 15 20 19 21 34
9 15 -13 17 -12 13 10 -2 20 -10 26 -40 31 -33 5 -37 3 -43 -19z"/>
<path d="M6872 8275 c0 -16 2 -22 5 -12 2 9 2 23 0 30 -3 6 -5 -1 -5 -18z"/>
<path d="M8370 7255 c0 -8 5 -15 10 -15 6 0 10 7 10 15 0 8 -4 15 -10 15 -5 0
-10 -7 -10 -15z"/>
<path d="M7660 7870 c0 -5 5 -10 11 -10 5 0 7 5 4 10 -3 6 -8 10 -11 10 -2 0
-4 -4 -4 -10z"/>
<path d="M7621 7725 c-8 -22 -18 -46 -24 -53 -7 -9 -6 -11 7 -6 9 3 16 14 16
23 0 9 5 22 11 28 6 6 9 19 7 29 -3 13 -8 7 -17 -21z"/>
<path d="M7662 7715 c0 -16 2 -22 5 -12 2 9 2 23 0 30 -3 6 -5 -1 -5 -18z"/>
<path d="M7643 7669 c0 -31 11 -38 21 -13 3 8 0 21 -7 29 -11 11 -14 8 -14
-16z"/>
<path d="M7600 7610 c0 -5 5 -10 11 -10 5 0 7 5 4 10 -3 6 -8 10 -11 10 -2 0
-4 -4 -4 -10z"/>
<path d="M7504 7475 c-3 -8 -3 -18 0 -24 3 -5 0 -12 -6 -14 -9 -4 -9 -6 -1 -6
13 -1 6 -38 -11 -60 -9 -11 -8 -13 4 -9 8 2 17 15 19 29 1 13 8 27 14 31 7 4
7 11 -2 22 -7 9 -11 23 -7 31 3 8 3 15 0 15 -2 0 -7 -7 -10 -15z"/>
<path d="M7568 7433 c7 -3 16 -2 19 1 4 3 -2 6 -13 5 -11 0 -14 -3 -6 -6z"/>
<path d="M7637 7433 c-10 -9 -9 -73 1 -73 4 0 7 18 7 40 0 22 0 40 -1 40 0 0
-4 -3 -7 -7z"/>
<path d="M7575 7410 c3 -5 11 -10 16 -10 6 0 7 5 4 10 -3 6 -11 10 -16 10 -6
0 -7 -4 -4 -10z"/>
<path d="M7591 7374 c0 -11 3 -14 6 -6 3 7 2 16 -1 19 -3 4 -6 -2 -5 -13z"/>
<path d="M7514 7324 c3 -9 6 -18 6 -20 0 -2 11 -4 25 -4 27 0 32 9 13 28 -18
18 -51 15 -44 -4z"/>
<path d="M7426 7294 c-5 -14 -4 -15 9 -4 17 14 19 20 6 20 -5 0 -12 -7 -15
-16z"/>
<path d="M7410 7240 c0 -11 5 -20 10 -20 6 0 10 9 10 20 0 11 -4 20 -10 20 -5
0 -10 -9 -10 -20z"/>
<path d="M7390 7210 c0 -5 5 -10 11 -10 5 0 7 5 4 10 -3 6 -8 10 -11 10 -2 0
-4 -4 -4 -10z"/>
<path d="M7520 7113 c0 -6 -11 -14 -25 -17 -14 -4 -25 -11 -25 -16 0 -5 11
-12 25 -16 36 -9 31 -24 -7 -24 l-33 0 3 -80 c3 -61 7 -80 18 -80 10 0 14 12
14 40 0 27 4 40 14 40 10 0 16 21 21 76 4 41 4 78 1 81 -3 4 -6 2 -6 -4z"/>
<path d="M5908 11533 c23 -2 59 -2 80 0 20 2 1 4 -43 4 -44 0 -61 -2 -37 -4z"/>
<path d="M6058 11533 c10 -4 10 -8 1 -19 -6 -8 -8 -14 -4 -14 5 0 -2 -9 -15
-20 l-23 -20 31 6 c25 5 32 3 32 -10 0 -12 10 -16 40 -16 22 0 40 -4 40 -10 0
-5 14 -10 31 -10 23 0 30 4 27 17 -2 9 -9 18 -17 21 -9 3 -11 0 -6 -8 11 -18
-51 -5 -71 15 -9 8 -23 15 -31 15 -14 0 -14 3 2 20 17 19 17 20 -1 22 -10 1
19 5 66 8 l85 6 -100 1 c-55 1 -94 -1 -87 -4z"/>
<path d="M6575 11510 c-4 -6 5 -10 19 -10 14 0 26 5 26 10 0 6 -9 10 -19 10
-11 0 -23 -4 -26 -10z"/>
<path d="M5985 11501 c-3 -5 -1 -12 5 -16 5 -3 10 1 10 9 0 18 -6 21 -15 7z"/>
<path d="M5920 11464 c0 -8 5 -12 10 -9 6 4 8 11 5 16 -9 14 -15 11 -15 -7z"/>
<path d="M6908 11473 c6 -2 18 -2 25 0 6 3 1 5 -13 5 -14 0 -19 -2 -12 -5z"/>
<path d="M6240 11444 c0 -10 13 -14 48 -13 26 1 37 4 25 6 -13 2 -23 7 -23 11
0 4 -11 8 -25 8 -15 1 -25 -3 -25 -12z"/>
<path d="M3413 11403 c-13 -8 -23 -19 -23 -24 0 -16 15 -9 33 16 21 29 20 29
-10 8z"/>
<path d="M6848 11368 c-4 -27 -3 -29 8 -14 12 16 13 16 24 -1 11 -17 11 -17 6
0 -3 10 -6 25 -6 33 0 28 -28 13 -32 -18z"/>
<path d="M6792 11340 c0 -14 2 -19 5 -12 2 6 2 18 0 25 -3 6 -5 1 -5 -13z"/>
<path d="M6618 11313 c7 -3 16 -2 19 1 4 3 -2 6 -13 5 -11 0 -14 -3 -6 -6z"/>
<path d="M6790 11296 c0 -8 4 -17 9 -20 5 -4 7 3 4 14 -6 23 -13 26 -13 6z"/>
<path d="M9560 10650 c6 -11 13 -20 16 -20 2 0 0 9 -6 20 -6 11 -13 20 -16 20
-2 0 0 -9 6 -20z"/>
<path d="M9586 10624 c-3 -9 -2 -22 2 -31 6 -10 9 -5 9 16 0 35 -2 38 -11 15z"/>
<path d="M5498 10573 c7 -3 16 -2 19 1 4 3 -2 6 -13 5 -11 0 -14 -3 -6 -6z"/>
<path d="M9651 10524 c0 -11 3 -14 6 -6 3 7 2 16 -1 19 -3 4 -6 -2 -5 -13z"/>
<path d="M6320 9646 c0 -2 8 -10 18 -17 15 -13 16 -12 3 4 -13 16 -21 21 -21
13z"/>
<path d="M4541 9619 c-13 -10 -18 -19 -11 -19 12 0 45 29 39 35 -2 2 -15 -5
-28 -16z"/>
<path d="M4510 9580 c0 -5 5 -10 10 -10 6 0 10 5 10 10 0 6 -4 10 -10 10 -5 0
-10 -4 -10 -10z"/>
<path d="M6400 9563 c0 -15 19 -37 26 -31 3 4 -1 14 -10 23 -9 9 -16 13 -16 8z"/>
<path d="M6452 9544 c10 -10 20 -15 24 -12 3 4 -5 12 -18 18 -22 12 -22 12 -6
-6z"/>
<path d="M6490 9490 c0 -5 5 -10 11 -10 5 0 7 5 4 10 -3 6 -8 10 -11 10 -2 0
-4 -4 -4 -10z"/>
<path d="M6551 9474 c0 -11 3 -14 6 -6 3 7 2 16 -1 19 -3 4 -6 -2 -5 -13z"/>
<path d="M6486 9455 c4 -8 11 -15 16 -15 6 0 5 6 -2 15 -7 8 -14 15 -16 15 -2
0 -1 -7 2 -15z"/>
<path d="M6520 9461 c0 -5 5 -13 10 -16 6 -3 10 -2 10 4 0 5 -4 13 -10 16 -5
3 -10 2 -10 -4z"/>
<path d="M4381 9450 c-9 -5 -4 -7 13 -7 29 0 32 2 13 10 -8 3 -20 2 -26 -3z"/>
<path d="M6565 9439 c-11 -16 -1 -19 13 -3 7 8 8 14 3 14 -5 0 -13 -5 -16 -11z"/>
<path d="M6610 9396 c0 -2 7 -7 16 -10 8 -3 12 -2 9 4 -6 10 -25 14 -25 6z"/>
<path d="M6560 9379 c0 -5 5 -7 10 -4 6 3 10 8 10 11 0 2 -4 4 -10 4 -5 0 -10
-5 -10 -11z"/>
<path d="M6530 9330 c0 -5 5 -10 10 -10 6 0 10 5 10 10 0 6 -4 10 -10 10 -5 0
-10 -4 -10 -10z"/>
<path d="M6556 9297 c3 -10 9 -15 12 -12 3 3 0 11 -7 18 -10 9 -11 8 -5 -6z"/>
<path d="M6480 9160 c0 -29 4 -40 15 -40 11 0 15 11 15 40 0 29 -4 40 -15 40
-11 0 -15 -11 -15 -40z"/>
<path d="M6730 9172 c0 -18 5 -32 10 -32 6 0 8 11 4 28 -10 39 -14 40 -14 4z"/>
<path d="M6760 9171 c0 -6 4 -13 10 -16 6 -3 7 1 4 9 -7 18 -14 21 -14 7z"/>
<path d="M6640 9130 c0 -5 5 -10 10 -10 11 0 13 -87 4 -179 -5 -41 -11 -61
-20 -61 -10 0 -14 -13 -14 -40 0 -33 -4 -40 -19 -40 -16 0 -20 -11 -26 -77 -5
-54 -4 -78 4 -81 7 -2 11 -34 11 -83 0 -64 3 -79 15 -79 13 0 15 -20 15 -120
0 -73 4 -120 10 -120 6 0 10 11 10 25 0 22 4 25 34 25 21 0 36 6 40 15 4 12
-3 15 -34 15 l-40 0 0 80 c0 79 0 80 25 80 23 0 25 4 25 40 0 29 4 40 15 40
11 0 15 -11 15 -40 0 -22 5 -40 10 -40 14 0 13 77 -1 82 -6 2 -9 15 -7 28 l4
25 14 -27 c17 -35 21 -35 43 3 13 23 17 54 17 130 0 59 -4 99 -10 99 -5 0 -10
9 -10 20 0 11 4 20 9 20 17 0 22 34 6 42 -8 5 -15 16 -15 23 0 25 -17 16 -30
-15 -17 -42 -30 -37 -30 10 0 22 5 40 10 40 6 0 9 15 7 35 -3 24 0 38 10 44
13 7 12 10 -2 24 -9 10 -20 15 -24 13 -4 -3 -6 -66 -5 -140 2 -111 -1 -136
-12 -136 -10 0 -14 12 -14 40 0 22 -4 40 -10 40 -6 0 -8 42 -4 118 6 112 5
118 -15 130 -12 7 -21 8 -21 2z m97 -442 c-2 -24 -4 -7 -4 37 0 44 2 63 4 43
2 -21 2 -57 0 -80z m-107 -8 c0 -22 -4 -40 -10 -40 -5 0 -10 18 -10 40 0 22 5
40 10 40 6 0 10 -18 10 -40z"/>
<path d="M5287 9103 c-135 -28 -218 -63 -348 -149 -186 -123 -363 -360 -442
-594 -69 -204 -94 -458 -62 -655 68 -430 239 -723 548 -939 76 -53 269 -156
293 -156 3 0 20 -7 37 -15 38 -17 225 -70 282 -79 43 -7 252 -27 298 -28 15
-1 27 -7 27 -13 0 -9 21 -13 75 -13 70 1 75 2 69 20 -5 18 -2 20 50 16 31 -1
56 0 56 5 0 4 -8 7 -18 7 -9 0 -73 7 -142 15 -200 23 -315 63 -450 155 -124
85 -288 279 -274 323 5 15 3 19 -10 14 -19 -8 -35 18 -29 47 4 16 2 18 -5 7
-10 -13 -17 -3 -24 34 -1 6 -8 16 -15 24 -8 7 -12 20 -9 27 3 8 1 14 -5 14 -6
0 -9 7 -5 15 3 8 2 15 -2 15 -14 0 -33 60 -27 82 5 19 4 20 -5 8 -9 -12 -11
-6 -7 28 4 33 2 42 -8 38 -13 -4 -25 22 -25 54 0 13 1 13 11 0 7 -11 8 -2 3
30 -5 25 -8 58 -7 73 0 16 -3 23 -7 17 -5 -7 -9 -3 -13 12 -10 34 -8 45 3 28
7 -11 10 -7 10 18 0 18 7 44 16 58 13 19 17 55 19 162 1 75 6 155 10 177 8 45
36 127 45 135 11 8 40 72 40 87 0 15 25 45 31 38 2 -2 5 8 5 21 1 14 -2 21 -9
17 -6 -4 -7 -1 -2 7 7 11 12 9 23 -8 18 -27 36 -29 27 -3 -3 11 3 28 14 42 19
23 20 23 21 4 l1 -20 8 20 c9 22 -10 41 -32 30 -6 -4 24 29 69 72 159 155 385
231 603 204 109 -14 189 -39 197 -63 3 -10 10 -18 16 -18 6 0 3 10 -6 23 -8
12 -29 47 -46 78 -71 128 -192 264 -293 329 -31 20 -54 40 -50 43 3 4 -3 7
-15 7 -11 0 -27 6 -34 13 -16 15 -130 52 -211 67 -67 13 -185 10 -270 -7z
m-64 -908 c-3 -9 -8 -14 -10 -11 -3 3 -2 9 2 15 9 16 15 13 8 -4z m-60 -120
c-3 -9 -8 -14 -10 -11 -3 3 -2 9 2 15 9 16 15 13 8 -4z m-16 -57 c-3 -8 -6 -5
-6 6 -1 11 2 17 5 13 3 -3 4 -12 1 -19z m-40 -140 c-3 -7 -5 -2 -5 12 0 14 2
19 5 13 2 -7 2 -19 0 -25z m0 -425 c-3 -10 -5 -4 -5 12 0 17 2 24 5 18 2 -7 2
-21 0 -30z m916 -970 c-7 -2 -19 -2 -25 0 -7 3 -2 5 12 5 14 0 19 -2 13 -5z"/>
<path d="M6711 9104 c0 -11 3 -14 6 -6 3 7 2 16 -1 19 -3 4 -6 -2 -5 -13z"/>
<path d="M6810 9100 c0 -8 5 -22 10 -30 9 -13 10 -13 10 0 0 8 -5 22 -10 30
-9 13 -10 13 -10 0z"/>
<path d="M6837 9029 c4 -13 8 -18 11 -10 2 7 -1 18 -6 23 -8 8 -9 4 -5 -13z"/>
<path d="M6820 8970 c0 -5 5 -10 11 -10 5 0 7 5 4 10 -3 6 -8 10 -11 10 -2 0
-4 -4 -4 -10z"/>
<path d="M7803 8875 c0 -33 2 -45 4 -27 2 18 2 45 0 60 -2 15 -4 0 -4 -33z"/>
<path d="M6460 8840 l0 -40 -45 0 c-44 0 -60 -12 -30 -24 8 -3 15 -17 15 -31
0 -23 3 -25 50 -25 l50 0 0 40 c0 22 -4 40 -10 40 -5 0 -10 18 -10 40 0 22 -4
40 -10 40 -5 0 -10 -18 -10 -40z"/>
<path d="M6090 8793 c0 -6 8 -17 18 -24 16 -13 16 -13 2 6 -8 11 -16 22 -17
24 -2 2 -3 0 -3 -6z"/>
<path d="M6133 8776 c7 -14 15 -26 20 -26 13 0 7 17 -13 35 -19 17 -19 17 -7
-9z"/>
<path d="M3981 8713 c0 -12 -4 -30 -7 -40 -5 -14 -4 -15 5 -7 7 6 11 24 8 40
-3 21 -4 23 -6 7z"/>
<path d="M10083 8680 c0 -25 2 -35 4 -22 2 12 2 32 0 45 -2 12 -4 2 -4 -23z"/>
<path d="M5638 8573 c7 -3 16 -2 19 1 4 3 -2 6 -13 5 -11 0 -14 -3 -6 -6z"/>
<path d="M6301 8464 c0 -11 3 -14 6 -6 3 7 2 16 -1 19 -3 4 -6 -2 -5 -13z"/>
<path d="M5393 8400 c1 -11 8 -20 15 -20 11 0 12 3 3 14 -9 11 -9 15 1 19 9 4
7 6 -4 6 -11 1 -16 -6 -15 -19z"/>
<path d="M6301 8364 c0 -11 3 -14 6 -6 3 7 2 16 -1 19 -3 4 -6 -2 -5 -13z"/>
<path d="M6272 8325 c0 -16 2 -22 5 -12 2 9 2 23 0 30 -3 6 -5 -1 -5 -18z"/>
<path d="M7780 8301 c0 -34 4 -51 15 -55 12 -4 15 3 15 33 0 22 -3 46 -6 55
-12 32 -24 15 -24 -33z"/>
<path d="M6302 8300 c0 -14 2 -19 5 -12 2 6 2 18 0 25 -3 6 -5 1 -5 -13z"/>
<path d="M6780 8280 c0 -22 5 -40 10 -40 6 0 10 18 10 40 0 22 -4 40 -10 40
-5 0 -10 -18 -10 -40z"/>
<path d="M7751 8294 c0 -11 3 -14 6 -6 3 7 2 16 -1 19 -3 4 -6 -2 -5 -13z"/>
<path d="M5261 8205 c0 -12 -5 -26 -11 -33 -5 -7 -3 -6 6 2 9 7 14 22 11 32
-4 17 -5 17 -6 -1z"/>
<path d="M6800 8133 c0 -22 2 -25 10 -13 13 20 13 40 0 40 -5 0 -10 -12 -10
-27z"/>
<path d="M6897 8124 c-4 -20 -2 -44 4 -53 8 -13 9 -11 4 6 -3 12 -2 31 4 41 5
10 6 24 2 31 -5 8 -10 -1 -14 -25z"/>
<path d="M6921 8094 c0 -11 3 -14 6 -6 3 7 2 16 -1 19 -3 4 -6 -2 -5 -13z"/>
<path d="M6803 8040 c0 -25 2 -35 4 -22 2 12 2 32 0 45 -2 12 -4 2 -4 -23z"/>
<path d="M6882 8040 c0 -14 2 -19 5 -12 2 6 2 18 0 25 -3 6 -5 1 -5 -13z"/>
<path d="M5310 8011 c-24 -23 -30 -39 -31 -73 -2 -222 4 -661 11 -733 14 -150
45 -211 132 -260 44 -24 55 -26 145 -22 172 7 201 40 209 234 6 140 6 139 -1
201 -12 98 -25 54 -25 -85 0 -114 -3 -147 -22 -197 -22 -63 -82 -145 -107
-146 -7 0 6 18 29 41 73 71 74 77 78 407 l4 292 92 0 c84 0 99 3 155 31 83 41
121 98 121 177 0 67 -25 112 -78 138 -33 17 -69 19 -360 22 l-323 3 -29 -30z"/>
<path d="M6640 7975 c0 -14 -7 -28 -15 -31 -24 -9 -17 -24 10 -24 23 0 25 4
25 40 0 22 -4 40 -10 40 -5 0 -10 -11 -10 -25z"/>
<path d="M6720 7980 c0 -11 5 -20 10 -20 6 0 10 9 10 20 0 11 -4 20 -10 20 -5
0 -10 -9 -10 -20z"/>
<path d="M6311 7924 c0 -11 3 -14 6 -6 3 7 2 16 -1 19 -3 4 -6 -2 -5 -13z"/>
<path d="M6290 7878 c0 -7 5 -20 10 -28 8 -12 10 -11 10 7 0 12 -4 25 -10 28
-5 3 -10 0 -10 -7z"/>
<path d="M6241 7854 c0 -11 3 -14 6 -6 3 7 2 16 -1 19 -3 4 -6 -2 -5 -13z"/>
<path d="M6463 7800 c0 -25 2 -35 4 -22 2 12 2 32 0 45 -2 12 -4 2 -4 -23z"/>
<path d="M6530 7830 c0 -10 5 -12 53 -15 17 -1 27 3 27 11 0 10 -13 14 -40 14
-22 0 -40 -4 -40 -10z"/>
<path d="M6811 7813 c0 -25 1 -26 9 -8 12 27 12 35 0 35 -5 0 -10 -12 -9 -27z"/>
<path d="M6840 7816 c-5 -15 -10 -35 -9 -44 0 -9 7 1 15 22 8 22 12 41 9 44
-2 3 -9 -7 -15 -22z"/>
<path d="M6810 7746 c0 -9 5 -16 10 -16 6 0 10 4 10 9 0 6 -4 13 -10 16 -5 3
-10 -1 -10 -9z"/>
<path d="M6185 7732 c-8 -21 -7 -21 20 -9 14 7 25 15 25 19 0 13 -39 4 -45
-10z"/>
<path d="M6776 7741 c-4 -5 -2 -12 3 -15 5 -4 12 -2 15 3 4 5 2 12 -3 15 -5 4
-12 2 -15 -3z"/>
<path d="M6731 7634 c0 -11 3 -14 6 -6 3 7 2 16 -1 19 -3 4 -6 -2 -5 -13z"/>
<path d="M6740 7599 c0 -5 5 -7 10 -4 6 3 10 8 10 11 0 2 -4 4 -10 4 -5 0 -10
-5 -10 -11z"/>
<path d="M6676 7503 c-8 -24 -26 -32 -26 -11 0 6 -3 9 -6 5 -3 -3 -2 -13 3
-22 8 -14 11 -14 27 4 10 11 16 26 14 33 -3 8 -8 4 -12 -9z"/>
<path d="M6551 7454 c0 -11 3 -14 6 -6 3 7 2 16 -1 19 -3 4 -6 -2 -5 -13z"/>
<path d="M6151 7424 c0 -11 3 -14 6 -6 3 7 2 16 -1 19 -3 4 -6 -2 -5 -13z"/>
<path d="M6566 7414 c-3 -9 -6 -27 -6 -40 0 -21 -2 -23 -19 -12 -15 9 -25 9
-43 0 -13 -8 -15 -10 -4 -7 18 5 18 4 2 -19 -19 -29 -21 -48 -3 -26 7 8 21 22
31 30 18 14 19 13 13 -2 -10 -28 10 -21 33 12 13 18 16 30 10 30 -8 0 -10 9
-6 25 7 28 2 34 -8 9z"/>
<path d="M6132 7385 c0 -16 2 -22 5 -12 2 9 2 23 0 30 -3 6 -5 -1 -5 -18z"/>
<path d="M6130 7333 c0 -10 -3 -42 -6 -70 -4 -33 -3 -53 3 -53 6 0 11 31 11
70 1 39 -1 70 -3 70 -3 0 -5 -8 -5 -17z"/>
<path d="M6151 7334 c0 -11 3 -14 6 -6 3 7 2 16 -1 19 -3 4 -6 -2 -5 -13z"/>
<path d="M5182 7290 c0 -14 2 -19 5 -12 2 6 2 18 0 25 -3 6 -5 1 -5 -13z"/>
<path d="M6161 7294 c0 -11 3 -14 6 -6 3 7 2 16 -1 19 -3 4 -6 -2 -5 -13z"/>
<path d="M5316 7007 c3 -10 9 -15 12 -12 3 3 0 11 -7 18 -10 9 -11 8 -5 -6z"/>
<path d="M7153 6967 c-24 -24 -30 -47 -13 -47 6 0 10 -9 10 -20 0 -13 7 -20
20 -20 11 0 20 5 20 10 0 6 -4 10 -10 10 -5 0 -10 7 -10 16 0 8 5 12 10 9 13
-8 8 18 -5 27 -6 5 -5 8 3 8 6 0 12 7 12 15 0 20 -11 18 -37 -8z"/>
<path d="M5342 6946 c7 -8 15 -12 17 -11 5 6 -10 25 -20 25 -5 0 -4 -6 3 -14z"/>
<path d="M7071 6927 c-9 -12 -8 -18 4 -31 19 -19 31 -20 41 -5 3 6 -2 20 -13
31 -17 16 -21 17 -32 5z m34 -18 c12 -18 -3 -22 -20 -5 -14 14 -14 16 -1 16 8
0 18 -5 21 -11z"/>
<path d="M7015 6894 c-19 -15 -19 -15 8 -9 17 5 27 3 27 -4 0 -6 5 -11 10 -11
6 0 5 8 -2 20 -15 24 -17 24 -43 4z"/>
<path d="M7003 6840 c-11 -24 -24 -40 -35 -40 -29 0 -29 17 -1 39 20 15 22 19
8 14 -27 -9 -71 -43 -56 -43 7 0 10 -4 7 -9 -8 -12 40 -31 79 -31 32 0 35 3
35 28 0 20 -3 23 -10 12 -5 -8 -13 -11 -17 -6 -4 4 -1 13 8 19 9 7 14 18 11
26 -3 8 0 11 7 7 7 -5 9 -1 5 8 -10 26 -23 18 -41 -24z"/>
<path d="M3272 6770 c0 -19 2 -27 5 -17 2 9 2 25 0 35 -3 9 -5 1 -5 -18z"/>
<path d="M6875 6781 c-19 -8 -19 -8 3 -20 19 -10 22 -9 22 9 0 11 -1 20 -2 19
-2 0 -12 -4 -23 -8z"/>
<path d="M6815 6750 c-3 -5 3 -10 14 -10 12 0 21 5 21 10 0 6 -6 10 -14 10 -8
0 -18 -4 -21 -10z"/>
<path d="M6750 6700 c-8 -5 -12 -12 -9 -15 4 -3 12 1 19 10 14 17 11 19 -10 5z"/>
<path d="M6720 6650 c0 -5 7 -7 15 -4 8 4 15 8 15 10 0 2 -7 4 -15 4 -8 0 -15
-4 -15 -10z"/>
<path d="M6765 6650 c3 -5 11 -10 16 -10 6 0 7 5 4 10 -3 6 -11 10 -16 10 -6
0 -7 -4 -4 -10z"/>
<path d="M6618 6643 c7 -3 16 -2 19 1 4 3 -2 6 -13 5 -11 0 -14 -3 -6 -6z"/>
<path d="M6505 6600 c-3 -6 1 -7 9 -4 18 7 21 14 7 14 -6 0 -13 -4 -16 -10z"/>
<path d="M3885 6352 c-1 -392 -28 -511 -154 -689 -68 -97 -182 -174 -295 -202
-54 -13 -130 -6 -119 11 3 7 1 8 -5 4 -37 -23 89 -171 187 -221 27 -13 80 -29
117 -35 94 -15 510 -4 581 16 62 17 209 114 278 183 27 27 53 47 57 45 4 -3 8
2 8 10 0 8 6 18 13 22 6 4 9 4 5 -1 -7 -8 15 -35 28 -35 5 0 3 5 -4 12 -13 13
-16 48 -4 48 4 0 13 -5 18 -10 12 -12 64 6 64 22 0 4 6 8 14 8 19 0 46 39 46
66 0 11 6 34 14 50 23 48 14 83 -47 195 l-59 106 -111 63 c-62 35 -134 79
-162 98 -27 20 -66 46 -85 59 -99 67 -297 279 -356 381 -10 17 -21 32 -24 32
-3 0 -5 -107 -5 -238z m749 -817 c-4 -8 -11 -15 -16 -15 -6 0 -5 6 2 15 7 8
14 15 16 15 2 0 1 -7 -2 -15z"/>
<path d="M6982 6578 c6 -17 58 -18 58 -1 0 8 -12 13 -31 13 -19 0 -29 -4 -27
-12z"/>
<path d="M6412 6565 c-10 -12 -10 -15 2 -15 7 0 16 7 20 15 7 19 -5 19 -22 0z"/>
<path d="M6200 6510 c25 -8 25 -8 3 -15 -13 -4 -19 -13 -16 -21 4 -11 8 -11
26 1 12 8 25 14 30 15 4 0 13 0 20 1 20 1 -46 28 -68 28 -16 -1 -15 -2 5 -9z"/>
<path d="M6290 6510 c-13 -8 -13 -10 2 -10 9 0 20 5 23 10 8 13 -5 13 -25 0z"/>
<path d="M6418 6509 c-22 -12 -23 -29 -3 -29 20 0 65 22 65 32 0 11 -41 10
-62 -3z"/>
<path d="M6373 6420 c-1 -11 2 -20 7 -20 4 0 7 7 6 15 -3 23 -12 26 -13 5z"/>
<path d="M6640 6225 c0 -37 4 -65 10 -65 6 0 10 18 10 40 0 38 2 40 30 40 25
0 30 4 30 25 0 23 -4 25 -40 25 l-40 0 0 -65z"/>
<path d="M3273 6160 c0 -30 2 -43 4 -27 2 15 2 39 0 55 -2 15 -4 2 -4 -28z"/>
<path d="M5625 6170 c-3 -5 -1 -10 4 -10 6 0 11 5 11 10 0 6 -2 10 -4 10 -3 0
-8 -4 -11 -10z"/>
<path d="M3273 6025 c0 -27 2 -38 4 -22 2 15 2 37 0 50 -2 12 -4 0 -4 -28z"/>
<path d="M4517 6039 c7 -7 15 -10 18 -7 3 3 -2 9 -12 12 -14 6 -15 5 -6 -5z"/>
<path d="M7068 6033 c7 -3 16 -2 19 1 4 3 -2 6 -13 5 -11 0 -14 -3 -6 -6z"/>
<path d="M6610 5991 c0 -10 19 -25 25 -20 1 2 -3 10 -11 17 -8 7 -14 8 -14 3z"/>
<path d="M6607 5959 c7 -7 15 -10 18 -7 3 3 -2 9 -12 12 -14 6 -15 5 -6 -5z"/>
<path d="M6877 5959 c7 -7 15 -10 18 -7 3 3 -2 9 -12 12 -14 6 -15 5 -6 -5z"/>
<path d="M6719 5932 c-3 -20 -2 -29 4 -23 5 5 7 19 5 32 -3 20 -5 19 -9 -9z"/>
<path d="M6560 5936 c0 -9 7 -16 16 -16 9 0 14 5 12 12 -6 18 -28 21 -28 4z"/>
<path d="M6600 5928 c0 -10 6 -18 13 -18 6 0 23 -3 37 -5 20 -4 18 -3 -5 6
-16 7 -33 17 -37 23 -5 7 -8 4 -8 -6z"/>
<path d="M3272 5900 c0 -14 2 -19 5 -12 2 6 2 18 0 25 -3 6 -5 1 -5 -13z"/>
<path d="M6478 5915 c-7 -8 3 -65 13 -65 14 0 21 20 15 46 -6 23 -17 30 -28
19z"/>
<path d="M6778 5913 c7 -3 16 -2 19 1 4 3 -2 6 -13 5 -11 0 -14 -3 -6 -6z"/>
<path d="M6168 5893 c-10 -2 -15 -10 -11 -19 3 -8 0 -14 -7 -14 -6 0 -8 -4 -5
-10 8 -12 45 -13 45 -1 0 4 10 8 23 7 16 -1 22 5 22 19 0 20 -30 29 -67 18z"/>
<path d="M6075 5880 c-3 -6 1 -7 9 -4 18 7 21 14 7 14 -6 0 -13 -4 -16 -10z"/>
<path d="M3272 5840 c0 -14 2 -19 5 -12 2 6 2 18 0 25 -3 6 -5 1 -5 -13z"/>
<path d="M6000 5850 c0 -5 14 -10 30 -10 17 0 30 -3 30 -8 0 -4 9 -13 20 -19
15 -10 22 -10 32 1 7 7 22 12 32 10 38 -6 -3 18 -46 27 -59 11 -98 11 -98 -1z"/>
<path d="M5952 5828 c6 -18 25 -20 31 -3 5 10 0 15 -14 15 -12 0 -19 -5 -17
-12z"/>
<path d="M3274 5695 c0 -60 1 -84 3 -52 2 32 2 81 0 110 -2 29 -3 3 -3 -58z"/>
<path d="M5928 5753 c6 -2 18 -2 25 0 6 3 1 5 -13 5 -14 0 -19 -2 -12 -5z"/>
<path d="M3736 5725 c-3 -8 -1 -15 4 -15 6 0 10 7 10 15 0 8 -2 15 -4 15 -2 0
-6 -7 -10 -15z"/>
<path d="M5361 5614 c0 -11 3 -14 6 -6 3 7 2 16 -1 19 -3 4 -6 -2 -5 -13z"/>
<path d="M3322 5497 c10 -24 13 -25 21 -12 5 9 6 19 3 22 -3 4 -6 0 -6 -7 0
-9 -5 -7 -15 6 -14 18 -14 17 -3 -9z"/>
<path d="M5373 5400 c0 -25 2 -35 4 -22 2 12 2 32 0 45 -2 12 -4 2 -4 -23z"/>
<path d="M5382 5300 c0 -14 2 -19 5 -12 2 6 2 18 0 25 -3 6 -5 1 -5 -13z"/>
<path d="M5402 5240 c0 -19 2 -27 5 -17 2 9 2 25 0 35 -3 9 -5 1 -5 -18z"/>
<path d="M5395 5177 c-6 -14 -21 -23 -39 -25 -15 -2 -26 0 -23 5 3 5 -8 7 -26
4 -31 -4 -31 -5 -7 -12 14 -4 42 -7 62 -8 32 -1 39 3 44 24 8 33 1 40 -11 12z"/>
<path d="M6113 4470 c-287 -31 -545 -260 -625 -557 -31 -115 -31 -318 0 -428
74 -259 319 -499 583 -571 98 -27 272 -25 373 4 163 47 298 132 420 264 80 85
107 129 142 229 28 76 44 247 30 303 l-6 26 -353 -2 -352 -3 0 -165 0 -165
123 -3 c67 -1 122 -6 122 -10 -1 -13 -122 -95 -162 -109 -199 -68 -436 33
-531 226 -30 62 -32 72 -32 176 1 103 3 114 32 175 33 67 78 128 87 119 3 -3
-3 -15 -14 -27 -11 -12 -19 -24 -18 -26 2 -3 -5 -15 -16 -27 -27 -33 -43 -77
-51 -147 -9 -78 3 -205 18 -195 6 4 8 0 4 -10 -8 -21 12 -69 27 -64 7 2 11 50
12 133 0 71 4 143 8 159 27 104 68 181 116 216 16 13 30 28 30 33 0 8 -3 8 -8
0 -4 -6 -16 -14 -26 -18 -19 -7 -19 -6 -1 14 19 21 8 29 -13 8 -8 -8 -12 -8
-12 -1 0 5 28 23 63 39 52 23 75 28 147 28 97 0 192 -24 242 -60 17 -13 41
-24 52 -24 37 0 236 172 236 205 0 46 -185 181 -303 221 -59 20 -224 47 -262
42 -5 0 -42 -4 -82 -8z m-194 -975 c0 -5 -4 -3 -9 5 -5 8 -9 22 -9 30 0 16 17
-16 18 -35z"/>
<path d="M7800 4461 c-223 -50 -404 -188 -509 -390 -164 -316 -96 -706 167
-953 150 -141 347 -221 542 -221 71 1 101 6 183 35 71 25 97 31 97 21 0 -7 -4
-13 -10 -13 -5 0 -10 -10 -9 -22 0 -21 1 -22 8 -3 6 15 9 11 14 -23 9 -52 27
-62 110 -62 123 0 219 45 257 120 19 37 20 59 20 395 0 223 -4 363 -10 375
-10 18 -24 19 -243 19 -127 0 -260 -3 -294 -6 l-63 -5 0 -164 0 -164 113 6
c109 5 111 5 91 -13 -131 -112 -172 -128 -301 -120 -211 13 -368 166 -380 372
-6 88 6 160 38 222 74 145 211 228 379 227 103 0 146 -13 228 -71 48 -34 69
-43 88 -39 42 11 224 178 224 207 0 22 -64 102 -113 141 -62 49 -169 101 -252
123 -96 26 -274 29 -375 6z"/>
<path d="M3413 4449 c-8 -10 -12 -218 -15 -772 -3 -665 -1 -759 12 -767 21
-14 313 -13 344 1 23 11 24 15 31 163 l7 151 144 2 c170 2 259 22 370 83 80
45 128 88 190 173 86 116 109 204 102 384 -4 91 -10 131 -27 173 -83 203 -252
351 -451 395 -106 23 -690 35 -707 14z m662 -386 c156 -82 189 -290 66 -413
-68 -68 -148 -89 -313 -82 l-48 2 0 234 c0 135 4 246 10 261 l10 27 118 -4
c95 -3 125 -8 157 -25z"/>
<path d="M3810 4074 c-1 -5 -2 -38 -5 -74 -2 -43 -1 -56 5 -40 5 17 9 -12 10
-85 1 -60 3 -121 4 -135 1 -14 3 -55 4 -92 1 -38 5 -68 10 -68 4 0 9 105 11
233 3 226 3 233 -18 251 -11 11 -21 15 -21 10z"/>
<path d="M4965 4451 l-80 -6 -3 -763 c-2 -719 -1 -763 15 -770 30 -12 306 -7
329 5 19 11 21 24 27 155 12 251 8 1324 -4 1352 -17 37 -70 42 -284 27z"/>
<path d="M8867 4451 l-99 -6 97 -150 c54 -82 125 -193 158 -245 33 -52 72
-113 87 -135 15 -22 73 -113 129 -202 l102 -163 -1 -314 c0 -265 2 -315 14
-325 11 -9 60 -12 181 -9 151 3 168 5 181 22 11 16 14 72 14 285 l0 265 86
145 c105 179 100 171 150 251 22 36 75 121 116 190 41 69 105 174 142 233 36
60 66 119 66 131 0 22 -5 23 -97 29 -54 4 -142 7 -195 7 l-97 0 -44 -62 c-36
-51 -204 -340 -288 -497 l-18 -34 -54 84 c-49 77 -85 136 -230 374 -26 44 -60
92 -74 108 -26 26 -30 27 -127 25 -56 -1 -145 -4 -199 -7z"/>
<path d="M10284 4368 c-22 -52 -76 -142 -86 -146 -5 -2 -8 -8 -8 -14 0 -6 -15
-31 -34 -57 -18 -25 -42 -64 -52 -86 -10 -22 -24 -44 -31 -48 -7 -4 -13 -15
-13 -22 0 -8 -3 -15 -7 -15 -5 0 -17 -20 -28 -45 -11 -25 -23 -45 -28 -45 -4
0 -14 -15 -22 -32 -8 -18 -14 -29 -15 -24 0 4 -13 -18 -30 -49 -16 -31 -27
-62 -23 -68 3 -6 1 -7 -5 -3 -8 4 -21 -13 -36 -47 -13 -30 -29 -57 -34 -61 -6
-4 -8 -14 -5 -23 4 -11 2 -14 -5 -9 -7 4 -23 -18 -43 -61 l-32 -68 -1 -272
c-1 -149 2 -266 6 -260 6 9 8 8 8 -1 0 -7 4 -11 9 -8 13 9 20 74 26 271 7 241
15 287 51 308 8 4 14 12 14 17 0 6 16 31 36 56 19 26 44 65 56 88 11 23 24 43
28 46 4 3 25 37 48 75 22 39 50 82 60 96 11 14 34 52 52 85 48 90 83 150 102
171 9 10 26 37 38 61 12 23 26 42 31 42 5 0 9 8 9 18 0 10 9 35 20 57 24 48
26 100 4 109 -31 12 -41 5 -60 -36z"/>
<path d="M5295 4198 c-4 -23 -5 -169 -4 -323 1 -154 1 -313 0 -353 -3 -68 1
-93 14 -80 7 7 9 788 2 795 -3 2 -8 -15 -12 -39z"/>
<path d="M8569 4138 c-8 -14 -14 -18 -17 -10 -2 6 -8 12 -14 12 -6 0 -8 -7 -5
-14 4 -10 1 -13 -9 -9 -9 3 -19 -6 -27 -26 -7 -17 -15 -29 -18 -27 -3 3 -5 -4
-6 -15 -2 -17 0 -18 13 -4 9 8 20 15 26 15 5 0 7 7 4 16 -3 8 -2 13 3 10 11
-7 71 47 71 63 0 17 -8 13 -21 -11z"/>
<path d="M6078 4043 c7 -3 16 -2 19 1 4 3 -2 6 -13 5 -11 0 -14 -3 -6 -6z"/>
<path d="M7747 3976 c-15 -7 -24 -16 -20 -21 5 -4 2 -5 -5 -1 -6 4 -19 0 -28
-8 -8 -9 -13 -16 -9 -16 3 0 -5 -12 -18 -26 -16 -17 -23 -34 -20 -48 3 -14 2
-17 -4 -8 -17 24 -36 -89 -31 -187 3 -68 9 -96 21 -108 15 -16 16 -12 16 54
-1 95 11 189 22 172 6 -10 9 -7 9 11 1 14 10 41 20 60 11 19 22 43 26 53 3 9
10 17 15 17 5 0 14 11 19 25 5 14 14 25 20 25 5 0 10 5 10 10 0 12 -7 12 -43
-4z"/>
<path d="M4626 3728 c-3 -19 -4 -42 -1 -51 4 -8 2 -18 -4 -22 -6 -3 -11 -15
-11 -26 0 -10 -4 -19 -8 -19 -4 0 -8 -10 -9 -21 -1 -12 -11 -30 -23 -41 -12
-11 -19 -26 -16 -34 6 -16 -23 -56 -36 -48 -4 3 -5 -3 -1 -12 5 -13 2 -16 -9
-12 -11 5 -14 1 -11 -16 3 -15 -1 -25 -11 -29 -9 -4 -16 -1 -16 5 0 7 -14 -3
-31 -20 -17 -18 -35 -32 -40 -32 -5 0 -9 -9 -9 -19 0 -51 121 41 182 139 44
70 62 115 52 131 -4 7 -3 10 3 6 6 -4 9 15 9 48 -1 30 3 56 7 58 4 1 4 13 -1
27 -9 23 -9 23 -16 -12z"/>
<path d="M7058 3581 c-2 -73 -9 -125 -16 -134 -7 -8 -9 -23 -5 -32 5 -14 3
-16 -7 -10 -10 6 -11 2 -6 -21 4 -18 3 -24 -2 -16 -7 10 -14 2 -26 -29 -10
-24 -26 -55 -37 -70 -10 -15 -19 -35 -19 -44 0 -9 -4 -13 -10 -10 -5 3 -10 -3
-10 -15 0 -14 -29 -50 -77 -98 -76 -75 -80 -83 -16 -36 17 13 35 24 40 24 19
0 152 153 175 201 52 109 72 188 73 285 0 91 -11 124 -40 124 -9 0 -14 -33
-17 -119z"/>
<path d="M8684 3622 c9 -117 10 -588 2 -601 -5 -7 -5 -29 -2 -49 3 -20 3 -31
0 -24 -4 8 -16 -6 -31 -37 -14 -28 -31 -51 -37 -51 -14 -1 -72 -48 -66 -53 12
-11 99 26 131 56 55 51 62 100 61 427 -1 334 -7 384 -42 393 -19 5 -20 1 -16
-61z"/>
<path d="M5295 3295 c-11 -121 -8 -335 4 -335 11 0 18 230 11 350 l-5 95 -10
-110z"/>
<path d="M4360 3309 c0 -5 5 -7 10 -4 6 3 10 8 10 11 0 2 -4 4 -10 4 -5 0 -10
-5 -10 -11z"/>
<path d="M3816 3181 c-3 -4 -4 -74 -3 -154 2 -135 3 -144 20 -136 14 8 17 25
17 113 0 57 3 117 6 134 5 24 2 32 -14 41 -12 6 -23 7 -26 2z"/>
<path d="M5275 2939 c-10 -15 3 -25 16 -12 7 7 7 13 1 17 -6 3 -14 1 -17 -5z"/>
<path d="M9306 2242 c-15 -42 -91 -215 -167 -383 -76 -168 -139 -311 -139
-316 0 -11 144 -26 148 -15 1 4 16 31 32 60 l30 52 68 0 c37 0 91 -3 119 -6
50 -6 54 -9 73 -50 12 -24 29 -45 38 -48 39 -11 172 -17 172 -8 0 5 -22 54
-49 108 -91 185 -128 269 -194 439 -72 185 -96 245 -100 245 -1 0 -15 -35 -31
-78z m49 -365 c34 -59 34 -87 -2 -86 -16 1 -40 4 -55 8 l-27 6 26 58 c14 31
27 57 29 57 2 0 15 -20 29 -43z"/>
<path d="M4990 1918 c0 -194 3 -363 6 -375 6 -20 13 -23 63 -23 83 0 182 17
234 39 25 11 76 49 113 84 76 71 78 77 78 202 0 58 -5 80 -29 129 -42 82 -88
118 -255 197 -80 39 -157 76 -172 84 -14 8 -29 15 -32 15 -3 0 -6 -159 -6
-352z m209 83 c21 -11 52 -36 69 -56 64 -72 32 -183 -67 -238 l-51 -28 0 170
c0 94 2 171 5 171 3 0 23 -9 44 -19z"/>
<path d="M6625 2152 c-5 -5 82 -179 140 -282 24 -41 77 -140 118 -219 l75
-144 28 44 c15 24 45 82 67 129 22 47 70 139 107 205 81 147 115 213 124 243
8 23 7 23 -81 20 l-88 -3 -77 -157 c-42 -87 -81 -158 -86 -158 -5 0 -41 64
-80 143 -38 78 -76 150 -83 159 -10 13 -33 18 -87 21 -40 2 -74 1 -77 -1z"/>
<path d="M8268 2151 l-47 -6 67 -86 c37 -47 88 -113 114 -147 26 -33 52 -72
58 -86 5 -15 7 -79 3 -156 -5 -106 -4 -130 8 -133 43 -13 125 -24 131 -19 3 4
10 80 15 168 l9 162 52 73 c75 107 145 219 140 224 -3 3 -48 7 -100 10 l-95 5
-32 -63 c-17 -34 -38 -71 -47 -82 -14 -18 -16 -18 -27 -4 -37 49 -93 110 -112
123 -29 19 -78 25 -137 17z"/>
<path d="M2537 2143 c-11 -18 -16 -282 -9 -443 l7 -175 65 0 65 0 3 106 c3
125 -4 119 131 119 l84 0 -7 38 c-3 20 -6 53 -6 72 l0 35 -100 -3 -100 -4 0
59 0 60 106 -5 107 -5 -5 66 c-3 36 -9 70 -12 76 -8 13 -322 16 -329 4z"/>
<path d="M4240 2134 c0 -10 -3 -150 -7 -310 l-6 -291 61 -7 c182 -21 331 46
399 178 67 131 19 296 -110 384 -63 43 -100 53 -224 59 -106 6 -113 5 -113
-13z m240 -173 c40 -29 70 -80 70 -121 0 -66 -63 -135 -133 -147 l-37 -6 0
153 0 152 38 -6 c20 -4 48 -15 62 -25z"/>
<path d="M5570 1846 c0 -268 2 -305 16 -310 9 -3 86 -6 171 -6 l156 0 -7 61
c-3 33 -8 65 -12 70 -3 5 -43 9 -90 9 l-84 0 0 51 0 51 93 -3 c69 -3 92 -1 91
9 -1 6 -2 39 -2 72 l-2 60 -90 0 -90 0 0 45 0 45 101 0 101 0 -7 68 c-4 37 -9
70 -12 75 -2 4 -78 7 -169 7 l-164 0 0 -304z"/>
<path d="M5992 1843 l3 -308 180 0 180 0 0 65 0 65 -55 2 c-30 2 -79 5 -107 9
l-53 5 -2 232 -3 232 -73 3 -72 3 2 -308z"/>
<path d="M6427 2143 c-4 -3 -7 -142 -7 -309 l0 -302 66 -4 c36 -1 68 -1 70 1
2 2 4 143 4 313 l0 308 -63 0 c-35 0 -67 -3 -70 -7z"/>
<path d="M7332 1843 l3 -308 165 1 165 2 -4 58 c-1 33 -5 62 -8 67 -2 4 -34 7
-71 7 -104 0 -112 4 -112 56 l0 44 95 0 95 0 0 69 c0 80 0 81 -118 81 l-73 0
3 43 3 42 98 0 98 0 -3 70 -3 70 -168 3 -167 2 2 -307z"/>
<path d="M7735 2137 c-3 -7 -4 -145 -3 -307 l3 -295 72 -3 72 -3 3 97 3 97 53
-86 c29 -48 60 -91 70 -95 21 -11 212 -24 212 -15 0 4 -9 16 -19 27 -10 12
-47 61 -81 110 l-61 89 39 41 c52 54 62 75 62 133 0 106 -45 179 -127 207 -60
20 -291 23 -298 3z m245 -146 c29 -54 -6 -115 -63 -109 -32 3 -32 3 -35 66
l-3 62 45 0 c35 0 48 -5 56 -19z"/>
<path d="M9726 2134 c-3 -9 -6 -145 -6 -304 0 -236 3 -290 14 -299 8 -7 37
-11 68 -9 45 3 53 6 55 23 1 11 5 50 8 86 l6 66 67 7 c103 10 143 25 183 65
43 43 60 93 52 159 -11 104 -72 190 -150 211 -21 6 -95 11 -164 11 -107 0
-128 -3 -133 -16z m248 -140 c9 -3 16 -12 16 -20 0 -8 5 -23 12 -33 6 -10 8
-26 5 -35 -8 -19 -57 -42 -102 -48 l-30 -3 -3 73 -3 72 45 0 c24 0 51 -3 60
-6z"/>
<path d="M9930 1970 c0 -5 5 -10 10 -10 6 0 10 5 10 10 0 6 -4 10 -10 10 -5 0
-10 -4 -10 -10z"/>
<path d="M9960 1959 c0 -5 5 -7 10 -4 6 3 10 8 10 11 0 2 -4 4 -10 4 -5 0 -10
-5 -10 -11z"/>
<path d="M10246 2134 c-5 -11 -10 -148 -13 -306 -7 -325 -14 -297 83 -301 l59
-2 3 78 3 77 72 0 c40 0 89 5 109 10 55 16 120 69 146 120 43 82 16 204 -60
277 -50 48 -80 56 -244 61 -140 4 -151 3 -158 -14z m244 -144 c28 -8 39 -18
49 -45 11 -31 10 -39 -4 -61 -19 -30 -71 -54 -115 -54 l-30 0 0 85 0 85 33 0
c17 0 48 -5 67 -10z"/>
<path d="M10430 1976 c0 -2 15 -6 34 -8 19 -2 32 0 30 4 -5 8 -64 12 -64 4z"/>
<path d="M3150 2121 c-99 -21 -186 -88 -223 -170 -15 -34 -21 -67 -22 -126 0
-70 4 -86 30 -133 40 -73 88 -119 163 -154 57 -28 71 -30 136 -26 177 11 311
163 291 326 -13 108 -100 230 -188 267 -45 18 -139 27 -187 16z m153 -190 c59
-36 73 -104 36 -170 -29 -52 -65 -74 -123 -78 -88 -7 -146 51 -146 144 0 50
18 82 60 111 29 20 43 23 88 19 29 -3 67 -15 85 -26z"/>
<path d="M3710 2099 c-65 -36 -123 -90 -145 -135 -20 -43 -20 -186 1 -247 21
-61 94 -141 157 -174 62 -31 146 -40 218 -23 195 46 289 287 178 461 -38 60
-62 81 -133 118 -51 27 -68 31 -140 31 -71 0 -88 -4 -136 -31z m210 -148 c74
-39 98 -116 60 -190 -29 -57 -64 -81 -119 -81 -86 0 -151 67 -151 155 0 106
113 168 210 116z"/>
<path d="M7302 2101 c-8 -5 -14 -25 -14 -47 0 -22 -5 -45 -10 -52 -8 -9 -7
-11 6 -6 9 3 18 16 21 28 4 20 12 86 11 86 -1 0 -7 -4 -14 -9z"/>
<path d="M8827 2076 c-12 -13 -33 -46 -47 -73 -14 -26 -28 -49 -32 -51 -5 -2
-8 -10 -8 -18 0 -9 -4 -12 -10 -9 -5 3 -10 -3 -10 -14 0 -12 -5 -21 -10 -21
-6 0 -20 -16 -31 -35 -12 -19 -25 -33 -29 -30 -11 7 -19 -28 -13 -59 7 -32 29
-34 37 -3 3 13 16 35 30 50 13 14 32 44 42 66 11 22 26 41 34 41 12 0 13 2 1
9 -11 7 -8 14 13 32 14 12 26 28 26 35 0 7 6 17 14 21 14 8 46 60 46 76 0 16
-32 6 -53 -17z"/>
<path d="M10703 2054 c8 -16 21 -44 28 -62 15 -43 16 -175 0 -180 -6 -2 -11
-10 -11 -18 0 -8 -5 -14 -11 -14 -6 0 -8 -7 -5 -16 3 -8 2 -12 -4 -9 -6 3 -10
2 -10 -4 0 -13 -51 -65 -65 -66 -5 -1 -25 -8 -44 -17 -50 -23 -16 -29 65 -12
109 22 157 82 157 194 0 87 -31 165 -79 204 l-37 29 16 -29z"/>
<path d="M10150 2066 c0 -2 8 -10 18 -17 15 -13 16 -12 3 4 -13 16 -21 21 -21
13z"/>
<path d="M10196 1995 c8 -50 14 -58 14 -19 0 16 -5 36 -11 44 -7 11 -8 4 -3
-25z"/>
<path d="M7250 1941 c0 -6 4 -13 10 -16 6 -3 7 1 4 9 -7 18 -14 21 -14 7z"/>
<path d="M7225 1912 c-5 -11 -33 -66 -62 -121 -29 -56 -48 -101 -43 -101 11 0
50 54 50 70 0 6 4 9 9 6 5 -4 7 4 3 16 -3 14 -2 19 6 14 7 -4 12 -2 12 5 0 7
9 32 21 56 21 43 25 95 4 55z"/>
<path d="M8211 1883 c-1 -6 -4 -20 -7 -30 -5 -17 -5 -17 6 0 6 10 9 23 6 30
-3 9 -5 9 -5 0z"/>
<path d="M10192 1844 c-7 -23 -20 -52 -31 -65 -10 -13 -16 -29 -14 -35 2 -7
-13 -22 -33 -35 -22 -13 -32 -25 -25 -27 16 -5 88 44 113 79 16 21 18 33 10
75 l-9 49 -11 -41z"/>
<path d="M4751 1844 c0 -11 3 -14 6 -6 3 7 2 16 -1 19 -3 4 -6 -2 -5 -13z"/>
<path d="M8157 1783 c5 -12 3 -14 -7 -8 -8 5 -11 4 -6 -3 3 -6 -1 -15 -10 -20
-17 -10 -11 -32 8 -32 6 0 8 3 5 7 -4 3 3 21 14 40 17 28 18 33 5 33 -10 0
-13 -6 -9 -17z"/>
<path d="M4191 1744 c0 -11 3 -14 6 -6 3 7 2 16 -1 19 -3 4 -6 -2 -5 -13z"/>
<path d="M2702 1718 c4 -9 3 -19 -2 -24 -4 -5 -4 -18 0 -29 8 -19 9 -19 9 2 1
12 7 23 14 25 9 2 7 9 -7 22 -14 14 -18 15 -14 4z"/>
<path d="M7096 1665 c-3 -8 -1 -15 3 -15 5 0 11 7 15 15 3 8 1 15 -3 15 -5 0
-11 -7 -15 -15z"/>
<path d="M4700 1653 c0 -20 -89 -105 -101 -97 -5 3 -6 -2 -3 -10 9 -24 18 -20
68 30 29 29 46 54 46 70 0 13 -2 24 -5 24 -3 0 -5 -8 -5 -17z"/>
<path d="M9881 1628 c0 -30 1 -31 9 -10 5 12 14 22 20 22 6 0 8 5 5 10 -14 23
-35 10 -34 -22z"/>
<path d="M10479 1647 c5 -5 19 -7 32 -5 20 3 19 5 -9 9 -20 3 -29 2 -23 -4z"/>
<path d="M4110 1579 c-25 -27 -47 -52 -50 -56 -3 -3 10 2 28 11 19 10 41 31
50 47 10 16 20 29 25 29 4 0 7 5 7 10 0 19 -15 8 -60 -41z"/>
<path d="M5439 1607 c-52 -40 -71 -58 -66 -64 11 -10 55 17 73 45 18 28 16 35
-7 19z"/>
<path d="M10401 1593 c0 -12 -4 -30 -7 -40 -5 -17 -5 -17 6 0 6 10 9 28 7 40
-4 22 -4 22 -6 0z"/>
<path d="M9882 1570 c0 -14 2 -19 5 -12 2 6 2 18 0 25 -3 6 -5 1 -5 -13z"/>
</g>
</svg>
