<svg version="1.1" id="Layer_1" xmlns="http://www.w3.org/2000/svg" xmlns:xlink="http://www.w3.org/1999/xlink" x="0px" y="0px"
	 width="100%" viewBox="0 0 1024 1024" enable-background="new 0 0 1024 1024" xml:space="preserve">
<path fill="#000000" opacity="1.000000" stroke="none" 
	d="
M762.935181,437.790070 
	C754.182007,457.571747 743.273193,475.630096 730.340820,492.483459 
	C703.195923,527.858704 667.567932,551.673706 626.690002,568.189575 
	C598.318787,579.652344 568.543518,584.876099 538.178345,587.278076 
	C528.535095,588.040833 518.882507,588.695740 509.227997,588.150757 
	C504.962097,587.909973 503.520844,589.595825 502.577179,593.497620 
	C499.001556,608.281738 490.182098,615.118652 475.117157,615.244263 
	C466.451508,615.316589 457.785309,615.322632 449.119293,615.345886 
	C446.453003,615.353027 443.786255,615.285828 441.120270,615.310608 
	C436.762482,615.351135 434.797424,613.311035 434.841492,608.874390 
	C434.965607,596.376465 435.042450,583.874939 434.857086,571.378967 
	C434.790863,566.915894 436.409760,565.556152 440.776184,565.939453 
	C460.782532,567.695740 480.709015,566.450562 500.573792,563.847290 
	C539.901550,558.693542 575.228455,543.473450 607.340637,520.643860 
	C627.994507,505.960327 645.530457,488.126678 659.715820,466.942780 
	C676.457703,441.941193 689.025879,415.064240 696.809326,386.077728 
	C701.601990,368.228882 704.759277,349.975555 705.722534,331.457642 
	C707.965698,288.330627 706.686646,245.168900 706.563171,202.024826 
	C706.508301,182.845505 704.248657,163.790344 698.108093,145.438843 
	C693.200317,130.771637 685.287842,118.041245 673.331116,108.005699 
	C672.368896,107.198112 670.884827,106.763931 670.871887,104.788696 
	C672.826355,103.212006 674.922485,104.633583 676.800354,105.045425 
	C697.488770,109.582626 715.093628,120.120354 731.149475,133.494629 
	C762.316772,159.456497 778.857788,193.682846 786.184448,232.779480 
	C791.554565,261.435486 790.882629,290.422485 789.632507,319.418976 
	C788.849609,337.580627 787.463013,355.653015 783.707703,373.439697 
	C779.056763,395.468597 772.568726,416.952271 762.935181,437.790070 
z"/>
<path fill="#000000" opacity="1.000000" stroke="none" 
	d="
M519.880798,167.224182 
	C496.224274,163.976746 473.620178,167.076614 451.384033,173.835144 
	C445.331696,175.674698 439.275635,177.554306 433.594604,180.389389 
	C428.500244,182.931732 428.152832,184.767365 431.705933,189.068100 
	C438.937042,197.820648 437.383209,205.123428 427.021576,210.254959 
	C398.797913,224.232559 373.672546,242.410629 352.751587,266.006226 
	C334.892792,286.148163 320.322021,308.356720 313.924957,334.976318 
	C311.065125,346.876862 311.621521,359.168610 311.444794,371.282440 
	C311.043701,398.773712 311.268402,426.274384 311.283173,453.771240 
	C311.286804,460.531982 310.026276,467.049774 307.483337,473.262299 
	C301.309204,488.346161 283.464722,492.119995 270.360077,482.458954 
	C263.440247,477.357483 261.799103,471.830353 261.523285,463.877167 
	C260.783630,442.549805 260.240570,421.241364 261.842194,399.958008 
	C263.880585,372.870087 270.526764,346.841187 280.656158,321.649750 
	C287.008087,305.852753 294.166718,290.483307 303.504028,276.210510 
	C305.060394,273.831482 304.558960,272.367981 302.515594,270.754364 
	C295.064484,264.870392 287.623688,258.970490 280.294952,252.935760 
	C276.761810,250.026459 273.050781,247.173492 270.907562,241.986252 
	C279.104431,243.362823 281.571747,236.899033 284.836975,232.318390 
	C298.515472,213.129486 313.623840,195.183609 330.705048,178.987305 
	C350.054901,160.639862 371.795166,145.666367 396.069672,134.458176 
	C417.843475,124.404648 440.661041,117.750679 464.391418,114.845787 
	C492.055389,111.459366 518.905090,115.585060 544.579346,126.492462 
	C567.868530,136.386627 588.963806,149.372543 604.181580,170.313217 
	C613.068848,182.542679 618.109680,196.369308 621.259277,210.997925 
	C621.644714,212.788040 621.984070,214.588547 622.397400,216.372055 
	C624.177673,224.054993 627.292114,225.794022 634.989990,223.430389 
	C642.027405,221.269562 643.297485,221.620178 647.749695,227.298706 
	C649.400513,229.404144 650.935669,231.603943 653.363220,232.894791 
	C660.164490,236.511398 662.940857,242.296127 663.968201,249.828186 
	C665.270386,259.375488 664.664612,268.790588 663.683228,278.211975 
	C662.803711,286.654907 659.314270,293.843781 651.926636,298.767853 
	C649.875305,300.135162 648.168152,302.050262 646.411804,303.821777 
	C643.484314,306.774536 640.282288,308.612549 635.843506,308.522491 
	C632.247009,308.449524 628.499512,308.855103 625.616211,311.336365 
	C623.276062,309.983490 623.956726,307.934967 623.849731,306.242249 
	C623.018982,293.103363 622.177490,279.917725 622.985840,266.792755 
	C623.707031,255.082184 620.156494,244.635849 614.935242,234.786896 
	C594.696167,196.609283 563.097839,174.025879 519.880798,167.224182 
z"/>
<path fill="#000000" opacity="1.000000" stroke="none" 
	d="
M511.279419,254.954987 
	C504.613342,255.773209 498.764984,257.731506 494.053925,262.417664 
	C489.161499,267.284210 483.370880,269.669037 476.267517,270.239105 
	C466.888550,270.991791 459.462982,275.763763 455.343719,284.645325 
	C453.876099,287.809753 451.138306,287.679871 449.974182,285.597321 
	C443.783569,274.522766 432.822754,274.386719 422.423828,273.074524 
	C418.519592,272.581879 415.532104,271.702972 413.578186,267.827789 
	C411.848969,264.398224 412.586945,262.341827 415.476593,260.240631 
	C428.937073,250.452820 443.800751,243.847015 460.363586,242.201218 
	C488.240143,239.431213 515.803223,241.959549 541.753296,252.760513 
	C578.805664,268.182434 604.704224,294.555328 615.502747,334.058044 
	C621.976929,357.741730 618.722168,380.835297 610.542053,403.623688 
	C603.123413,424.290619 592.552856,443.064606 577.341675,458.867554 
	C562.278748,474.516510 544.249634,483.691467 521.772949,479.219971 
	C510.353546,476.948242 501.284302,469.793488 492.698364,462.368683 
	C488.985657,459.157990 488.809021,446.292877 491.825348,440.802795 
	C494.945068,443.037811 495.904083,446.728455 497.956726,449.575134 
	C501.637726,454.679962 506.400848,455.665924 511.562195,451.855804 
	C536.350037,433.557220 550.997375,408.842346 556.502014,378.828094 
	C561.140503,353.536499 560.463318,328.371033 550.620056,304.177399 
	C542.440735,284.073608 531.166931,266.237671 511.279419,254.954987 
z"/>
<path fill="#000000" opacity="1.000000" stroke="none" 
	d="
M467.485168,334.444702 
	C435.116913,339.298889 418.020599,359.624023 410.023376,389.262268 
	C400.123047,425.953796 417.055084,471.674622 447.733032,491.712158 
	C456.412750,497.381317 465.901733,500.649933 476.146942,501.941986 
	C478.718109,502.266205 481.450623,502.080322 483.944305,503.701630 
	C483.101532,506.334137 480.921021,506.193604 479.045471,506.142303 
	C447.437164,505.277863 417.527069,499.126556 392.378845,478.188049 
	C373.407776,462.392761 362.518219,441.964020 357.464172,418.062866 
	C352.461395,394.404510 354.006012,371.313690 363.727509,349.111053 
	C372.740601,328.526428 386.385651,311.881470 407.159149,302.114532 
	C418.983795,296.555054 431.731598,294.510803 444.623627,295.347260 
	C454.868530,296.011932 463.111481,302.401398 471.641418,307.565491 
	C475.969757,310.185913 479.479156,313.727783 482.877045,317.406372 
	C488.636200,323.641266 491.307343,324.257477 499.090942,320.888489 
	C502.298553,319.500153 505.428833,317.918427 508.527679,316.297333 
	C512.314270,314.316437 515.243103,315.371704 517.679810,318.587311 
	C520.828125,322.741791 523.394165,327.352844 525.001282,332.189758 
	C529.774109,346.554962 536.040466,360.404266 531.786133,376.673218 
	C529.273254,386.283173 528.834595,396.377838 522.967346,404.907288 
	C519.218018,410.357758 514.942444,415.391785 512.816345,421.933044 
	C511.534729,425.876038 507.527466,427.461670 503.490662,427.493378 
	C500.181152,427.519379 496.892303,426.964478 493.541901,427.500275 
	C491.188904,427.876587 490.233337,425.986542 490.094666,424.079895 
	C489.662079,418.134247 489.154480,412.397858 493.007172,406.853943 
	C503.378784,391.929596 503.501404,374.989990 501.161652,357.872101 
	C500.447144,352.644501 499.346161,347.386749 497.189789,342.443787 
	C495.967224,339.641266 494.093689,337.881653 491.139679,336.996582 
	C483.548523,334.722168 475.814301,333.963898 467.485168,334.444702 
z"/>
<path fill="#000000" opacity="1.000000" stroke="none" 
	d="
M644.976074,748.645996 
	C644.949829,742.513855 644.984558,736.847290 644.920593,731.181824 
	C644.879211,727.514343 646.325684,725.698547 650.256592,725.723206 
	C663.421448,725.805725 676.588379,725.776611 689.752441,725.615845 
	C693.885986,725.565369 695.135010,727.877319 694.901733,731.271667 
	C693.722900,748.420837 694.700684,765.587646 694.331299,782.741211 
	C694.184937,789.535278 690.537170,794.007080 684.580139,796.552063 
	C679.945740,798.531982 674.926270,799.047791 669.886475,798.930481 
	C666.371338,798.848755 663.809937,797.808167 663.572815,793.548462 
	C663.370728,789.918518 661.359436,788.921448 657.688660,789.991272 
	C621.850708,800.435608 586.284424,779.148438 578.319946,742.604492 
	C570.161987,705.172668 593.410889,671.043396 631.191956,666.440979 
	C650.348389,664.107361 667.936890,668.689209 681.337280,684.148071 
	C684.839661,688.188538 684.504211,691.387512 680.703430,694.753174 
	C677.087891,697.954712 673.580444,701.277832 669.992859,704.511414 
	C666.799194,707.389893 663.954163,707.329529 660.343689,704.527405 
	C645.910400,693.325684 627.586670,694.727173 615.453918,708.310730 
	C606.491516,718.344788 604.696716,730.410156 609.404846,742.881104 
	C614.174133,755.514038 624.062500,761.807983 637.409912,762.803284 
	C646.307312,763.466675 654.229431,761.624268 660.242920,753.833008 
	C656.692261,751.663147 653.219666,753.480042 649.914124,753.266907 
	C646.982971,753.077942 645.022644,752.422424 644.976074,748.645996 
z"/>
<path fill="#000000" opacity="1.000000" stroke="none" 
	d="
M526.321289,673.585449 
	C530.390686,675.918091 533.957581,678.366760 538.007019,679.998108 
	C541.960449,681.590942 543.409851,686.944946 540.523315,690.240967 
	C536.135559,695.251038 531.229614,699.753296 525.755615,703.633423 
	C522.879089,705.672424 520.932617,704.220093 518.611511,702.682922 
	C505.946960,694.295837 488.878845,695.513733 478.033508,705.929382 
	C467.882080,715.678589 465.710876,727.967773 469.591278,740.923645 
	C473.382477,753.581543 483.116516,760.226257 495.796844,762.767273 
	C505.235840,764.658813 514.023254,763.495789 521.659546,757.092651 
	C522.546021,756.349304 523.626343,755.796814 523.761536,754.118286 
	C520.380737,752.548218 516.723572,753.491211 513.214355,753.378113 
	C506.244507,753.153625 505.955536,753.041748 506.078339,745.897095 
	C506.172729,740.406860 506.580078,734.921753 506.658539,729.431702 
	C506.698029,726.671997 507.991028,725.515503 510.564209,725.371033 
	C511.560516,725.315063 512.552551,725.113403 513.547180,725.108521 
	C528.371033,725.035461 543.195068,724.921387 558.018738,724.960266 
	C563.558716,724.974792 564.400574,726.398560 564.624451,731.885376 
	C566.083984,767.653076 529.488464,794.053955 500.827728,794.216309 
	C469.032166,794.396362 438.690704,764.718140 437.697906,732.947449 
	C436.957153,709.243347 444.979462,689.691284 464.940765,676.278687 
	C484.487213,663.144714 505.099457,662.864746 526.321289,673.585449 
z"/>
<path fill="#000000" opacity="1.000000" stroke="none" 
	d="
M304.008331,778.965698 
	C304.008179,792.773438 303.001007,793.830811 289.614624,793.907959 
	C285.628082,793.930908 281.640350,793.613647 277.651947,793.491516 
	C273.705627,793.370789 272.048065,791.264648 272.043091,787.432800 
	C272.030548,777.777832 271.821198,768.122192 271.887299,758.468140 
	C272.078796,730.505066 271.534363,702.535583 272.635742,674.579590 
	C272.881927,668.331177 273.314270,667.630432 279.590576,667.755981 
	C296.372589,668.091614 313.274902,666.429871 329.896484,669.684570 
	C355.250946,674.649353 371.430420,697.350830 369.201324,724.214233 
	C367.308289,747.027954 346.351654,766.098938 322.010925,767.079773 
	C317.855530,767.247253 313.676117,767.314026 309.529572,767.064819 
	C305.445496,766.819336 303.610565,768.325989 303.972168,772.490173 
	C304.144379,774.473389 304.007019,776.483521 304.008331,778.965698 
M322.518982,738.281921 
	C325.104065,737.539185 327.518982,736.428162 329.687378,734.833862 
	C336.599762,729.751953 338.893616,722.799805 337.458832,714.588501 
	C336.093781,706.776245 329.505035,699.846008 322.006927,698.719666 
	C317.431061,698.032227 312.710999,698.280518 308.054352,698.163635 
	C305.366943,698.096191 304.116486,699.572815 304.050385,702.175293 
	C303.771454,713.156250 303.029053,724.129761 303.746063,735.124756 
	C303.963989,738.466797 305.514069,739.727112 308.827454,739.754028 
	C313.194366,739.789429 317.457306,739.171631 322.518982,738.281921 
z"/>
<path fill="#000000" opacity="1.000000" stroke="none" 
	d="
M793.020142,668.254089 
	C802.697632,667.185852 811.993408,668.278503 821.297241,668.255493 
	C824.880432,668.246582 826.032227,671.972595 829.060852,673.258362 
	C828.513123,674.095947 828.136108,675.101807 827.827332,675.081299 
	C821.876282,674.685425 820.324219,679.556702 817.941162,683.319336 
	C806.449890,701.463318 795.140991,719.717407 784.254639,738.236145 
	C780.774292,744.156616 778.759644,750.096008 779.080750,757.097778 
	C779.522888,766.739075 779.050903,776.419128 779.303833,786.073792 
	C779.418945,790.470032 777.623962,792.878662 773.439941,793.032349 
	C766.289978,793.294983 759.123779,793.293030 751.968506,793.168579 
	C747.958069,793.098877 747.909668,789.954346 747.907043,787.016968 
	C747.895508,774.024841 747.714966,761.028931 747.983093,748.042419 
	C748.088318,742.947021 746.668823,738.803406 743.898682,734.572205 
	C730.674988,714.374329 717.715088,694.003662 704.681458,673.681458 
	C703.895691,672.456360 702.809326,671.287231 703.236084,669.466431 
	C705.544128,668.043945 708.206970,668.029175 710.837036,667.980713 
	C716.332703,667.879395 721.870300,668.243225 727.315796,667.685547 
	C734.192993,666.981140 737.923157,670.142700 741.146973,675.841064 
	C747.701782,687.427063 754.872620,698.665405 761.836548,710.018188 
	C762.585999,711.239990 763.215271,712.690063 765.144897,713.364441 
	C770.352295,706.050537 774.170715,697.943665 778.610474,690.210938 
	C782.914490,682.714417 786.739563,674.910095 793.020142,668.254089 
z"/>
<path fill="#000000" opacity="1.000000" stroke="none" 
	d="
M321.110657,509.902954 
	C332.278900,524.220398 345.971252,535.129822 361.752594,542.955750 
	C371.371429,547.725647 375.273468,556.208374 379.963348,564.542725 
	C380.815582,566.057129 380.373901,567.376770 379.239777,568.623230 
	C369.947540,578.835632 361.390015,589.747986 350.432709,598.360352 
	C343.317108,603.953186 335.738495,607.523621 326.285797,607.622314 
	C313.319153,607.757812 300.247772,609.796814 287.436615,607.307617 
	C275.243042,604.938477 267.374390,596.763000 263.237366,585.078735 
	C263.025024,584.479004 263.042572,583.776123 263.064667,583.125061 
	C263.074371,582.838867 263.364197,582.562195 263.663239,582.045532 
	C266.973663,582.268677 269.702545,584.366760 272.727234,585.508850 
	C277.185364,587.192139 281.167816,586.611816 285.149384,584.348816 
	C301.522705,575.042603 308.669098,560.137695 310.736572,542.172180 
	C312.283478,528.730225 312.038086,515.242981 311.624695,501.754395 
	C311.595795,500.812592 311.126709,499.738251 312.695312,498.789948 
	C315.399475,502.364136 318.145782,505.994080 321.110657,509.902954 
z"/>
<path fill="#000000" opacity="1.000000" stroke="none" 
	d="
M454.000305,380.988525 
	C462.154572,381.107056 469.827087,380.481842 477.456604,381.631714 
	C482.935730,382.457458 487.421051,384.691132 489.088745,390.386047 
	C490.896545,396.559540 489.282104,401.960419 484.438660,406.195465 
	C479.570190,410.452362 473.713623,412.194733 467.332642,411.887512 
	C460.766724,411.571411 459.391022,412.701904 459.363892,419.355621 
	C459.321075,429.853577 459.319946,440.351746 459.312439,450.849823 
	C459.310028,454.214264 458.851746,457.520020 457.620636,460.642395 
	C454.916626,467.500610 449.456818,471.459595 442.874908,471.514343 
	C435.659363,471.574371 429.647430,467.411591 426.594757,460.365356 
	C422.893646,451.822479 423.590210,442.671204 423.225067,433.762177 
	C422.659058,419.951660 422.857971,406.106689 422.875946,392.276520 
	C422.885437,384.975342 425.327576,382.550720 432.532593,381.584686 
	C439.512512,380.648895 446.512939,381.216064 454.000305,380.988525 
z"/>
<path fill="#000000" opacity="1.000000" stroke="none" 
	d="
M413.733978,667.862915 
	C420.725464,668.365845 422.099365,669.553711 422.061523,676.108704 
	C421.849274,712.904358 421.491577,749.699158 421.252472,786.494629 
	C421.227020,790.412415 419.477814,792.202820 415.663483,792.651733 
	C409.015717,793.433899 402.361877,793.176819 395.708649,793.085999 
	C391.910034,793.034180 390.649689,790.808655 390.693085,787.174866 
	C390.838226,775.019409 390.833405,762.861938 390.833832,750.705200 
	C390.834717,725.891846 390.780426,701.078552 390.795898,676.265198 
	C390.800354,669.080566 391.569580,668.268005 398.782806,667.983276 
	C403.605682,667.792847 408.439911,667.890137 413.733978,667.862915 
z"/>
<path fill="#000000" opacity="1.000000" stroke="none" 
	d="
M399.717102,886.994019 
	C399.778595,872.500916 399.838531,858.506653 399.924561,844.512573 
	C399.926300,844.229980 400.232117,843.949219 400.888977,842.820679 
	C411.853180,849.076477 425.356415,851.497620 433.816437,861.470093 
	C447.068390,877.091003 440.906219,895.682861 419.520844,902.154175 
	C414.722046,903.606384 409.641357,903.405151 404.628418,903.418823 
	C401.442657,903.427551 400.018250,902.004639 399.939453,898.987183 
	C399.839417,895.156433 399.789795,891.324463 399.717102,886.994019 
M424.453705,878.785889 
	C425.124298,870.918701 421.294739,865.826477 413.901154,865.475281 
	C412.871979,873.069397 413.252808,880.656677 413.602142,888.348511 
	C419.761993,887.389282 421.795258,885.610413 424.453705,878.785889 
z"/>
<path fill="#000000" opacity="1.000000" stroke="none" 
	d="
M268.912323,902.235168 
	C259.090576,906.362488 250.186050,905.239441 242.436584,898.604614 
	C235.375793,892.559509 231.469498,884.828003 233.011887,875.196838 
	C234.702637,864.639160 243.147171,856.359253 253.491180,854.858398 
	C265.638916,853.095825 275.615936,858.217163 280.631165,868.789734 
	C287.014801,882.247070 283.095673,893.734497 268.912323,902.235168 
M248.258545,884.963135 
	C252.583878,890.700745 259.397278,891.826538 264.677185,887.676086 
	C269.572449,883.828003 270.936127,877.343811 267.711914,873.246155 
	C263.638214,868.069092 255.275955,866.925720 250.357315,870.945984 
	C245.812851,874.660217 246.938522,879.474731 248.258545,884.963135 
z"/>
<path fill="#000000" opacity="1.000000" stroke="none" 
	d="
M286.445557,866.787109 
	C292.975220,857.854980 301.016479,852.340210 312.145050,854.125854 
	C322.440430,855.777832 330.024261,861.569397 333.213013,871.726685 
	C336.281433,881.500854 334.543671,890.548889 326.870636,897.859497 
	C319.311432,905.061890 310.178741,906.254150 300.864929,902.814209 
	C291.426147,899.327942 286.058777,891.899719 284.701355,881.781799 
	C284.028046,876.763428 284.040863,871.826660 286.445557,866.787109 
M306.978058,867.464600 
	C299.361023,870.025085 296.215088,876.363098 299.101990,883.332336 
	C301.601074,889.365417 308.873016,892.182129 314.358948,889.242004 
	C318.332642,887.112366 321.427490,880.692932 320.481537,876.542175 
	C319.288239,871.306091 314.594879,867.935120 306.978058,867.464600 
z"/>
<path fill="#000000" opacity="1.000000" stroke="none" 
	d="
M744.016846,848.138489 
	C745.484924,845.394897 745.490112,842.293213 748.752502,839.678223 
	C756.960632,861.323181 765.177612,882.376282 775.929565,902.444702 
	C767.166321,904.904419 762.272156,903.214966 757.342712,896.401733 
	C756.356201,895.038208 755.097290,894.505737 753.526550,894.455322 
	C749.203430,894.316528 744.880371,894.177246 740.556641,894.060120 
	C736.840210,893.959412 736.217773,897.182556 734.854065,899.518188 
	C732.854065,902.943542 725.155762,904.882629 721.952393,902.593079 
	C719.745178,901.015442 721.364929,899.208618 722.025513,897.716309 
	C726.601196,887.380188 731.335999,877.114563 735.948364,866.794434 
	C738.660522,860.726074 741.241760,854.599243 744.016846,848.138489 
M749.633362,880.521973 
	C751.900269,877.286926 749.619446,875.643311 747.519958,873.811584 
	C745.190002,875.028015 744.098938,876.915161 744.509277,879.104614 
	C744.972778,881.577332 747.248291,880.738464 749.633362,880.521973 
z"/>
<path fill="#000000" opacity="1.000000" stroke="none" 
	d="
M634.890991,852.654907 
	C642.971863,852.402161 649.257446,854.763245 652.465698,862.150391 
	C655.774109,869.767944 654.902344,876.816345 648.329224,882.496521 
	C646.168701,884.363525 646.471741,885.858276 648.062622,887.960999 
	C651.517700,892.527466 654.707214,897.294800 658.226196,902.293884 
	C645.253296,905.727844 637.199219,901.191956 633.094238,888.878662 
	C632.700012,889.210876 632.305847,889.543091 631.911621,889.875305 
	C631.911621,892.964966 632.104492,896.069397 631.869690,899.141235 
	C631.438538,904.783142 626.942200,902.739197 623.829529,903.070984 
	C620.659119,903.408997 619.512939,901.805481 619.493042,898.600159 
	C619.409668,885.137634 619.156250,871.675415 618.865479,858.215332 
	C618.779907,854.255859 620.258118,852.345581 624.435120,852.622986 
	C627.746216,852.842896 631.084351,852.655457 634.890991,852.654907 
M635.736694,874.077393 
	C639.303894,873.097229 640.375366,870.646973 639.590820,867.262634 
	C639.045471,864.910278 637.182007,864.360535 635.042480,864.340393 
	C632.933411,864.320557 631.785828,865.601074 632.151184,867.431519 
	C632.632629,869.843445 629.880066,873.804565 635.736694,874.077393 
z"/>
<path fill="#000000" opacity="1.000000" stroke="none" 
	d="
M339.702393,856.263489 
	C339.856812,854.302185 340.604340,853.414856 342.073853,852.952576 
	C352.854370,849.561218 368.387848,855.563843 374.748627,865.203613 
	C385.907867,882.115601 372.243530,902.218628 354.553345,903.048584 
	C336.251282,903.907227 339.083740,904.775452 338.974030,889.164795 
	C338.898071,878.357483 339.416962,867.546021 339.702393,856.263489 
M353.402588,889.362183 
	C355.579620,889.075745 357.597961,888.354858 359.377380,887.059692 
	C362.942291,884.464783 365.431641,881.214417 364.570282,876.541382 
	C363.692871,871.781250 360.963226,868.429932 356.171143,866.992615 
	C354.497955,866.490723 352.512573,865.969543 352.211945,868.338989 
	C351.328613,875.301575 350.047302,882.321899 353.402588,889.362183 
z"/>
<path fill="#000000" opacity="1.000000" stroke="none" 
	d="
M859.119263,876.394775 
	C855.568115,886.492065 848.311279,891.045471 838.404236,891.054138 
	C833.245911,891.058655 830.507385,892.171875 831.302673,897.902283 
	C831.880737,902.067078 829.648804,903.402588 825.671509,903.338257 
	C821.652588,903.273315 818.880676,902.623657 819.011292,897.656433 
	C819.360901,884.355103 819.494141,871.048035 819.697388,857.742981 
	C819.750061,854.296082 821.259094,852.538086 824.904053,852.670105 
	C828.892944,852.814575 832.891418,852.669800 836.885071,852.710510 
	C852.663635,852.871277 859.689880,860.209290 859.119263,876.394775 
M834.774597,865.346558 
	C832.019165,867.239868 830.855896,876.150940 833.431213,877.320251 
	C836.911255,878.900208 840.262634,877.737549 842.962952,875.109070 
	C845.518433,872.621399 844.682251,869.726318 842.953003,867.449097 
	C841.235718,865.187683 838.261902,865.349609 834.774597,865.346558 
z"/>
<path fill="#000000" opacity="1.000000" stroke="none" 
	d="
M799.217529,888.437439 
	C798.630493,888.529480 798.468689,888.569458 798.304932,888.598022 
	C790.754761,889.913757 790.583618,889.907593 790.301514,897.798828 
	C790.145081,902.172119 788.194275,903.486145 784.056580,903.425720 
	C779.902710,903.365112 778.575195,901.621643 778.619446,897.647095 
	C778.765686,884.505798 778.810547,871.359924 778.603699,858.220276 
	C778.533630,853.768066 780.247803,852.315674 784.499146,852.589050 
	C788.807739,852.866089 793.149536,852.575745 797.471313,852.710205 
	C807.713928,853.028870 814.574036,860.463867 815.198059,871.789001 
	C815.699463,880.886841 810.013123,886.951416 799.217529,888.437439 
M800.037781,873.777405 
	C803.237793,870.866699 800.599304,868.423279 798.953613,866.545288 
	C797.195129,864.538391 793.990112,864.529602 792.058716,865.998169 
	C789.379761,868.035339 789.800354,871.599426 790.953186,874.270386 
	C792.153015,877.050293 794.952332,875.645081 797.139709,875.150635 
	C797.933289,874.971252 798.662476,874.506775 800.037781,873.777405 
z"/>
<path fill="#000000" opacity="1.000000" stroke="none" 
	d="
M463.408112,891.020996 
	C465.000000,891.048218 466.165131,891.048767 467.329468,891.079834 
	C472.786377,891.225281 475.776794,895.771912 473.826538,900.845642 
	C473.170044,902.553650 471.841888,903.031738 470.282684,903.025696 
	C463.628326,902.999878 456.973816,902.929932 450.320190,902.823547 
	C447.254791,902.774536 445.806519,901.139160 445.903046,898.065979 
	C446.331085,884.439453 446.957520,870.815125 446.092560,857.179810 
	C445.902588,854.185120 447.229065,852.572327 450.519958,852.638245 
	C456.840668,852.764771 463.165894,852.688721 469.489105,852.663269 
	C476.349213,852.635620 473.830536,857.929993 474.376129,861.379822 
	C475.040680,865.581848 472.005676,865.320251 469.270386,865.304260 
	C467.440002,865.293579 465.609344,865.306213 463.778900,865.321350 
	C461.580658,865.339600 459.266998,865.140808 459.174072,868.390015 
	C459.072021,871.958801 461.600616,871.755615 463.962341,871.821106 
	C465.625763,871.867188 467.290466,871.941223 468.953308,871.916504 
	C471.689148,871.875916 473.100861,872.873474 473.512299,875.882568 
	C474.537018,883.376953 473.936462,884.229431 466.296173,884.138611 
	C465.297943,884.126770 464.299561,884.130798 463.301453,884.114258 
	C460.912231,884.074707 459.072998,884.564453 458.840118,887.531067 
	C458.581940,890.819885 460.691895,890.938477 463.408112,891.020996 
z"/>
<path fill="#000000" opacity="1.000000" stroke="none" 
	d="
M595.663574,902.608765 
	C587.227783,903.120911 586.826843,902.765320 586.819580,895.082703 
	C586.807739,882.588684 586.920166,870.092896 586.736145,857.601501 
	C586.674133,853.393250 588.453308,851.937317 592.399231,852.029602 
	C598.050659,852.161804 603.709412,852.193848 609.360413,852.064575 
	C614.693542,851.942749 614.960449,855.384521 615.145447,859.366272 
	C615.348145,863.726746 613.594543,865.464050 609.261047,865.098633 
	C606.787720,864.890076 604.270325,865.145630 601.776123,865.263000 
	C600.201660,865.337158 599.400085,866.237305 599.320740,867.833740 
	C599.230896,869.643616 600.012573,870.716125 601.836060,870.866394 
	C604.323853,871.071350 606.815857,871.293396 609.309387,871.343323 
	C612.867310,871.414612 614.190857,873.101074 614.217712,876.659546 
	C614.268066,883.318359 614.286621,883.465820 607.828430,883.402832 
	C605.830200,883.383301 603.829224,883.369080 601.833435,883.449158 
	C599.732605,883.533508 599.000000,884.883850 598.981873,886.800110 
	C598.963013,888.797241 599.332214,890.546326 601.803345,890.684326 
	C604.463440,890.832947 607.128784,890.888550 609.791748,890.987610 
	C612.762512,891.098083 614.203369,892.408325 614.365173,895.611328 
	C614.697205,902.186340 614.726624,902.293396 608.097412,902.342896 
	C604.100647,902.372681 600.104492,902.479797 595.663574,902.608765 
z"/>
<path fill="#000000" opacity="1.000000" stroke="none" 
	d="
M560.863159,871.825317 
	C563.007935,867.294617 564.989136,863.083496 566.948425,858.862183 
	C570.039062,852.203430 571.507019,851.382446 578.973999,852.284912 
	C580.596069,852.480957 582.204651,852.789368 585.087097,853.247498 
	C575.993042,870.514526 567.201477,887.207397 557.767151,905.120667 
	C548.159973,887.080383 539.260925,870.369751 530.328674,853.596802 
	C538.147461,850.182617 543.538086,851.921509 546.793396,858.341553 
	C549.199036,863.085999 551.480774,867.893188 553.828918,872.666931 
	C554.544861,874.122437 554.910461,875.873535 556.939697,876.417419 
	C559.085205,875.849426 559.510315,873.649780 560.863159,871.825317 
z"/>
<path fill="#000000" opacity="1.000000" stroke="none" 
	d="
M683.122192,863.048584 
	C686.102173,862.063416 686.947266,859.503540 687.812256,857.278381 
	C689.464783,853.027222 692.297058,851.474426 696.716431,851.891541 
	C699.834839,852.185791 703.023071,851.841553 705.935364,853.108582 
	C706.818298,855.413025 705.220459,856.746826 704.272339,858.177795 
	C701.238159,862.757263 698.219299,867.361694 694.901672,871.734253 
	C691.627625,876.049438 690.094727,880.697205 690.286865,886.125122 
	C690.457397,890.943970 690.149780,895.780823 690.020142,900.608887 
	C689.953430,903.090698 688.936218,904.021973 686.203186,903.687073 
	C677.731079,902.648987 676.995422,902.694275 677.914856,893.994019 
	C679.112366,882.662903 675.881775,873.586121 667.888611,865.658997 
	C664.404785,862.203979 661.378662,858.171814 658.989380,853.776855 
	C664.205017,850.639343 670.677002,851.380554 675.113159,855.292664 
	C677.852173,857.708191 679.516846,861.174011 683.122192,863.048584 
z"/>
<path fill="#000000" opacity="1.000000" stroke="none" 
	d="
M202.679321,878.000000 
	C202.705017,870.835388 202.802841,864.170044 202.735397,857.506409 
	C202.701401,854.145691 204.076248,852.648560 207.506622,852.724548 
	C213.168839,852.849976 218.835922,852.743347 224.500854,852.762207 
	C230.805084,852.783264 231.154572,853.129028 231.413193,859.623108 
	C231.478348,861.259460 231.422943,862.900635 231.422943,864.670471 
	C226.021408,866.010132 220.849396,864.552795 215.869598,865.196838 
	C213.911423,872.739258 214.696075,873.798645 221.869415,873.588623 
	C222.535522,873.569153 223.202377,873.551453 223.866882,873.504578 
	C230.334396,873.047913 233.665665,877.668396 231.219696,883.638794 
	C230.369751,885.713379 228.528656,885.231750 226.969772,885.462219 
	C223.260834,886.010559 218.633636,883.639465 215.993942,886.727478 
	C213.707794,889.401917 215.253372,893.805542 214.798798,897.424683 
	C214.026581,903.572693 211.367432,905.243286 205.383820,903.280762 
	C202.866776,902.455139 202.786530,900.519409 202.770233,898.494019 
	C202.716583,891.829529 202.708649,885.164673 202.679321,878.000000 
z"/>
<path fill="#000000" opacity="1.000000" stroke="none" 
	d="
M484.094818,852.662354 
	C492.632935,852.676147 492.921112,853.174561 492.605621,861.136047 
	C492.276001,869.453430 492.431610,877.788940 492.227997,886.112915 
	C492.143219,889.577759 493.635956,890.966125 497.005615,890.792297 
	C499.164154,890.680969 501.335022,890.799561 503.500214,890.828613 
	C509.760010,890.912476 510.531342,891.926880 510.311310,898.244324 
	C510.190491,901.713623 508.622162,902.960754 505.377045,902.951721 
	C498.381470,902.932251 491.384979,902.975708 484.390106,903.078064 
	C481.262115,903.123779 479.730591,901.678284 479.727875,898.599426 
	C479.715546,884.607727 479.726624,870.616089 479.711273,856.624390 
	C479.708344,853.968384 480.890961,852.567627 484.094818,852.662354 
z"/>
<path fill="#000000" opacity="1.000000" stroke="none" 
	d="
M522.820190,852.679810 
	C525.981323,852.983215 526.313843,854.894714 526.301758,857.042542 
	C526.224915,870.708008 526.073730,884.373596 526.111755,898.038757 
	C526.123840,902.377197 523.960815,903.328491 520.129578,903.197205 
	C516.313599,903.066528 513.704956,902.461304 513.850586,897.684998 
	C514.261658,884.198425 514.528748,870.704224 514.591431,857.211792 
	C514.620972,850.859802 519.093628,852.998901 522.820190,852.679810 
z"/>
</svg>