<?xml version="1.0" standalone="no"?>
<!DOCTYPE svg PUBLIC "-//W3C//DTD SVG 20010904//EN"
 "http://www.w3.org/TR/2001/REC-SVG-20010904/DTD/svg10.dtd">
<svg version="1.0" xmlns="http://www.w3.org/2000/svg"
 width="940.000000pt" height="940.000000pt" viewBox="0 0 940.000000 940.000000"
 preserveAspectRatio="xMidYMid meet">

<g transform="translate(0.000000,940.000000) scale(0.100000,-0.100000)"
fill="#000000" stroke="none">
<path d="M4360 9230 c-333 -26 -601 -86 -925 -209 -202 -76 -378 -158 -369
-172 3 -5 -1 -6 -9 -3 -8 3 -36 -8 -63 -25 -27 -16 -89 -53 -139 -83 -77 -46
-127 -79 -269 -178 -211 -147 -617 -572 -752 -788 -43 -69 -145 -224 -259
-394 -76 -113 -159 -273 -220 -424 -34 -85 -80 -253 -71 -262 3 -3 8 1 10 9
108 303 167 437 263 599 96 162 245 315 403 413 59 36 121 88 205 173 108 109
182 176 316 284 49 39 199 139 304 202 39 23 75 49 82 57 7 9 13 13 13 9 0 -4
17 2 38 14 62 35 225 115 252 123 14 4 55 22 92 40 36 18 77 36 90 40 13 4 41
16 64 26 22 10 83 29 135 43 52 14 130 34 174 46 95 26 313 71 370 76 330 34
647 41 880 19 99 -9 182 -18 186 -20 3 -2 46 -9 95 -15 124 -15 157 -21 169
-28 6 -4 29 -12 51 -18 34 -8 41 -8 37 3 -4 11 0 12 18 4 13 -5 43 -15 66 -21
23 -7 40 -17 37 -21 -3 -5 2 -6 11 -3 9 4 26 2 38 -4 12 -6 40 -15 62 -20 54
-14 108 -35 189 -71 36 -17 69 -31 72 -31 12 0 264 -130 329 -170 103 -63 322
-221 391 -282 33 -29 86 -75 118 -103 181 -155 473 -512 621 -759 246 -410
382 -809 446 -1303 29 -226 32 -636 5 -858 -54 -461 -190 -926 -381 -1307 -56
-112 -216 -377 -269 -448 -59 -77 -63 -84 -40 -72 11 6 28 20 38 31 23 25 36
27 36 6 0 -57 134 12 247 128 55 57 151 173 183 222 19 29 56 84 81 122 25 37
57 88 70 113 13 25 27 47 32 48 4 2 7 12 7 21 0 10 9 30 20 44 11 14 20 29 20
34 0 5 21 59 46 119 44 106 54 133 90 259 9 33 21 67 25 75 4 8 24 85 44 170
21 85 43 175 50 200 41 144 70 588 56 834 -5 83 -12 158 -15 166 -3 8 -10 58
-15 110 -6 52 -17 125 -25 161 -8 36 -17 77 -20 90 -12 65 -26 115 -46 164
-13 30 -38 115 -46 155 -3 19 -10 41 -14 50 -19 35 -60 148 -69 185 -11 49
-43 133 -68 179 -10 19 -39 75 -64 123 -66 128 -110 205 -131 232 -10 13 -18
27 -18 32 0 8 -78 131 -98 155 -5 5 -15 21 -22 35 -7 13 -26 40 -42 59 -16 19
-46 60 -66 91 -112 172 -420 491 -681 706 -540 444 -1167 710 -1846 783 -139
15 -487 20 -625 10z"/>
<path d="M4435 8303 c-22 -20 -58 -49 -80 -65 -71 -52 -227 -190 -341 -300
-84 -83 -116 -108 -137 -108 -54 0 -245 -33 -352 -60 -203 -53 -501 -192 -685
-320 -90 -62 -213 -140 -221 -140 -4 0 -16 15 -26 33 -11 17 -39 66 -63 107
-60 103 -86 136 -126 161 -44 27 -43 46 4 58 76 22 180 9 326 -40 49 -16 91
-27 94 -24 9 9 -50 64 -114 106 -88 57 -151 78 -253 86 -81 5 -92 4 -125 -16
-87 -54 -135 -153 -201 -416 -85 -343 -141 -451 -295 -570 -30 -23 -74 -52
-97 -63 -74 -38 -229 -73 -355 -79 -65 -3 -118 -10 -118 -15 0 -5 5 -6 10 -3
14 8 13 -8 -1 -22 -18 -18 0 -33 41 -33 33 0 105 -8 226 -25 56 -8 246 14 313
36 71 24 179 89 224 135 120 124 191 306 243 624 14 85 28 158 30 162 15 24
55 -53 85 -166 24 -89 26 -289 4 -362 -8 -27 -15 -51 -15 -53 0 -2 21 16 46
39 31 28 49 39 53 31 5 -8 28 7 67 43 32 30 78 70 100 88 23 18 84 67 135 109
52 41 114 89 139 106 100 68 292 166 425 217 39 14 88 34 110 45 92 41 182 68
251 73 l49 3 35 -66 c19 -36 54 -90 77 -121 24 -30 48 -68 53 -85 l11 -30 217
-6 c321 -8 506 -50 757 -173 148 -72 253 -135 364 -219 51 -38 104 -77 116
-85 13 -8 26 -22 28 -32 3 -9 6 -116 6 -238 3 -309 12 -383 77 -588 7 -24 50
16 82 76 36 67 58 150 67 247 22 258 52 407 121 604 56 156 83 206 152 276 99
100 150 131 323 191 140 49 257 72 418 84 75 5 150 13 166 16 l30 6 -41 -43
c-53 -57 -77 -92 -119 -177 -48 -98 -71 -196 -90 -384 -26 -259 -50 -336 -138
-444 -68 -83 -173 -151 -284 -185 -24 -6 -43 -16 -43 -20 0 -5 33 -33 73 -63
39 -30 86 -66 102 -80 l30 -25 -25 -24 c-94 -92 -402 -255 -532 -281 -181 -37
-330 -3 -507 117 -160 107 -345 323 -431 502 -70 143 -92 240 -94 397 0 76 -4
138 -8 138 -16 0 -32 -114 -31 -220 2 -166 48 -348 129 -507 71 -138 193 -290
313 -387 72 -58 226 -152 266 -162 14 -3 28 -10 31 -16 5 -8 6 -2067 1 -2111
-2 -15 6 -20 43 -23 48 -5 70 2 165 47 175 83 224 134 239 243 6 49 6 853 0
1181 -2 99 -1 250 3 335 l6 154 36 36 c34 35 101 78 166 109 399 189 591 284
623 307 47 37 45 76 -8 109 -22 14 -59 37 -82 52 -24 14 -37 28 -30 31 6 2 12
10 12 18 0 8 5 14 10 14 6 0 10 5 10 11 0 5 19 30 42 55 95 101 162 255 198
453 22 121 40 254 40 291 0 67 49 233 96 329 30 59 49 112 52 142 4 48 4 49
-63 118 -58 60 -74 71 -119 81 -81 18 -427 25 -539 11 -191 -24 -390 -91 -617
-206 -47 -24 -108 -53 -137 -64 l-51 -20 -54 37 c-168 117 -437 255 -618 317
-58 20 -206 56 -330 81 -123 24 -228 48 -234 54 -6 6 5 41 33 99 39 83 43 98
47 183 1 51 10 113 19 137 8 24 14 45 13 47 -2 1 -21 -14 -43 -33z"/>
<path d="M1488 7363 c-153 -255 -284 -630 -337 -963 -95 -598 -47 -1118 154
-1645 29 -78 157 -339 208 -425 40 -70 186 -280 194 -280 3 0 -2 10 -10 23
-169 239 -268 417 -367 658 -98 238 -157 484 -190 787 -15 130 -8 605 10 737
13 97 64 357 86 440 24 87 86 270 103 303 5 9 21 46 37 82 15 36 58 128 96
204 38 76 67 143 66 148 -2 5 -24 -26 -50 -69z"/>
<path d="M2133 6343 c-147 -322 -226 -741 -208 -1103 11 -222 17 -276 46 -425
56 -283 117 -460 244 -715 145 -289 342 -556 559 -758 85 -79 317 -262 332
-262 4 0 15 -6 23 -14 19 -17 239 -144 291 -168 127 -59 302 -119 485 -168 61
-16 126 -34 145 -40 142 -42 368 -71 614 -77 224 -6 406 9 720 59 106 16 386
112 524 179 67 32 128 59 135 59 7 1 30 12 52 25 22 13 67 38 100 55 33 18 80
48 104 68 50 41 94 71 132 90 14 7 43 29 65 49 151 137 224 209 287 283 39 47
76 90 82 97 5 6 28 37 50 69 22 31 51 71 65 88 49 59 169 258 205 340 14 31
40 89 59 129 19 39 37 83 41 97 4 14 11 30 15 35 4 6 15 37 25 70 10 33 26 85
35 115 51 154 60 393 21 540 -12 47 -35 108 -51 135 -16 28 -44 93 -63 146
-46 126 -185 451 -199 464 -8 7 -9 5 -6 -5 3 -8 26 -79 52 -157 l46 -142 0
-163 c0 -178 -20 -379 -52 -528 -56 -265 -245 -650 -460 -941 -382 -515 -967
-850 -1674 -958 -183 -28 -362 -35 -564 -22 -662 43 -1179 264 -1620 693 -158
153 -242 261 -412 528 -37 59 -118 238 -118 262 0 8 -4 18 -8 24 -8 9 -58 148
-101 284 -11 36 -28 110 -37 165 -9 55 -20 120 -24 145 -26 149 -19 440 15
656 25 155 56 314 72 372 17 62 116 277 132 286 23 15 9 37 -49 76 -33 22 -66
43 -73 46 -9 3 -26 -23 -54 -83z"/>
<path d="M3957 6377 c-45 -13 -76 -33 -104 -67 -17 -20 -105 -190 -99 -190 3
0 20 9 38 20 61 36 153 52 267 48 94 -3 112 -7 158 -32 29 -16 83 -60 120 -98
l66 -70 61 17 c34 9 69 24 78 32 16 14 16 18 2 44 -23 45 -161 180 -233 227
-34 23 -86 49 -115 57 -74 22 -182 27 -239 12z"/>
<path d="M2395 6066 c-100 -43 -83 -185 26 -217 33 -10 45 -9 80 6 49 23 61
49 50 110 -10 53 -33 82 -78 101 -39 17 -40 17 -78 0z"/>
<path d="M3976 5980 c-97 -63 -99 -205 -6 -283 42 -36 91 -43 155 -23 55 17
89 46 98 85 9 37 -11 122 -38 163 -47 71 -148 99 -209 58z"/>
<path d="M2975 5725 c-112 -25 -116 -33 -14 -27 160 8 322 -33 514 -131 18 -9
18 -7 -3 15 -37 41 -191 116 -283 138 -96 23 -129 23 -214 5z"/>
<path d="M2765 5603 c-96 -20 -178 -66 -255 -143 -72 -71 -99 -121 -131 -235
-25 -93 -27 -194 -4 -299 42 -200 150 -326 375 -436 36 -18 94 -54 130 -80
150 -110 278 -160 540 -211 85 -16 171 -34 190 -39 210 -52 667 -39 935 26
138 34 219 61 297 100 72 36 77 42 89 88 4 17 7 -238 6 -567 -1 -347 2 -597 7
-597 5 0 34 8 65 19 31 10 74 24 96 31 47 15 190 94 223 124 52 46 52 51 43
368 -9 325 -7 780 4 930 7 95 10 103 60 174 17 24 21 48 24 156 1 70 0 128 -3
128 -3 0 -54 -32 -113 -71 -195 -130 -320 -176 -497 -186 -234 -12 -399 67
-561 270 l-70 88 -8 -48 c-32 -204 -78 -335 -159 -461 -121 -184 -286 -295
-503 -338 -109 -21 -308 -24 -382 -5 -54 13 -71 31 -30 31 37 0 213 65 273
101 107 65 176 148 221 268 22 57 24 78 21 156 -5 105 -18 139 -103 270 -132
202 -345 359 -536 395 -71 14 -161 11 -244 -7z m256 -183 c64 -19 143 -63 188
-104 41 -37 103 -138 127 -205 32 -90 32 -195 0 -273 -27 -66 -54 -101 -116
-150 -63 -49 -127 -68 -229 -68 -162 0 -276 43 -371 139 -71 71 -91 125 -91
246 1 180 44 308 125 370 83 63 245 83 367 45z"/>
<path d="M2941 5204 c-32 -41 -45 -100 -45 -204 1 -102 26 -190 63 -224 40
-37 90 27 111 143 23 128 -32 311 -94 311 -8 0 -24 -12 -35 -26z"/>
<path d="M2596 5140 c-26 -65 -30 -140 -12 -202 27 -92 79 -117 88 -41 5 41
-7 213 -18 257 -10 40 -39 33 -58 -14z"/>
<path d="M1812 3391 c-153 -57 -237 -179 -237 -346 0 -82 3 -96 32 -150 80
-153 235 -234 391 -206 173 31 285 147 308 318 7 53 -12 146 -43 212 -25 52
-109 130 -173 160 -76 34 -202 40 -278 12z m274 -64 c109 -56 164 -155 164
-294 0 -122 -67 -222 -179 -270 -68 -29 -145 -36 -204 -19 -194 56 -285 198
-243 378 18 79 50 133 102 177 60 48 106 61 214 58 80 -3 103 -8 146 -30z"/>
<path d="M1858 3266 c-94 -33 -140 -95 -146 -192 -6 -84 29 -161 91 -202 37
-25 49 -27 137 -27 90 0 99 2 132 27 44 33 80 104 86 169 9 94 -59 187 -165
225 -48 17 -88 17 -135 0z m148 -71 c51 -30 94 -97 94 -145 0 -42 -45 -125
-76 -139 -14 -6 -53 -11 -87 -11 -107 0 -166 47 -174 137 -12 136 127 226 243
158z"/>
<path d="M1840 3101 c-5 -11 -7 -33 -4 -50 6 -28 10 -31 43 -31 20 0 45 -7 55
-15 44 -33 86 -9 86 49 0 33 -31 49 -79 42 -20 -3 -30 -3 -23 0 25 11 11 24
-28 24 -28 0 -42 -5 -50 -19z"/>
<path d="M3678 2020 c-120 -21 -236 -86 -273 -153 l-19 -35 30 -39 c73 -96 94
-113 138 -113 22 1 75 15 116 31 56 23 96 32 160 36 l85 5 51 -46 c71 -63 98
-127 98 -231 0 -115 -23 -176 -94 -246 -63 -63 -94 -76 -205 -85 -127 -9 -161
37 -65 89 64 34 79 52 80 90 0 63 -69 140 -140 156 -25 6 -93 11 -151 11 -144
0 -139 8 -139 -197 0 -185 3 -195 100 -269 60 -47 105 -67 253 -113 275 -86
479 -28 591 169 21 36 43 74 49 85 17 30 21 237 7 335 -20 137 -57 214 -150
309 -97 97 -146 132 -244 171 -60 24 -197 53 -226 49 -3 -1 -26 -5 -52 -9z"/>
<path d="M4783 2016 c-77 -18 -167 -65 -217 -113 -43 -42 -43 -60 5 -129 60
-88 97 -99 210 -65 133 40 248 45 306 13 63 -35 114 -143 114 -243 1 -140 -56
-245 -161 -297 -48 -23 -67 -27 -146 -27 -62 0 -96 4 -107 14 -15 12 -12 16
24 47 23 19 45 34 50 34 25 0 49 42 49 85 0 42 -4 50 -52 95 -35 34 -62 50
-87 54 -58 9 -269 12 -277 4 -4 -5 -9 -89 -12 -188 l-5 -181 51 -49 c32 -31
82 -64 139 -90 48 -23 104 -50 123 -60 58 -29 139 -44 250 -44 112 0 169 17
276 79 57 34 152 174 171 254 16 70 18 248 3 321 -22 102 -101 240 -185 325
-134 133 -350 200 -522 161z"/>
<path d="M5652 2007 c-50 -28 -49 -23 -52 -492 -2 -242 -2 -455 -1 -473 1 -27
9 -37 48 -62 26 -17 59 -30 73 -30 14 0 33 -9 43 -20 14 -17 24 -20 55 -14 45
8 69 24 93 61 16 23 19 48 19 148 -1 66 -5 152 -11 190 -5 39 -13 167 -18 285
-7 172 -13 224 -27 261 -26 63 -60 106 -110 135 -45 27 -77 30 -112 11z"/>
<path d="M6365 2014 c-126 -15 -212 -51 -268 -113 -43 -48 -59 -78 -81 -153
-48 -167 25 -366 163 -445 25 -14 55 -34 66 -43 31 -25 91 -42 190 -54 l90
-11 6 -85 c3 -47 9 -93 14 -103 4 -10 44 -36 88 -57 105 -52 160 -54 210 -10
44 38 47 58 48 365 1 368 -30 549 -105 599 -12 8 -37 28 -56 46 -63 58 -102
70 -225 68 -60 0 -123 -3 -140 -4z m153 -410 l-3 -149 -35 3 c-69 6 -139 23
-151 39 -30 35 0 141 53 189 38 36 122 84 131 75 4 -4 6 -75 5 -157z"/>
<path d="M2485 1995 c-54 -29 -67 -47 -61 -80 4 -16 75 -131 159 -255 l152
-225 6 -205 c4 -113 7 -211 8 -217 1 -7 19 -25 41 -39 40 -27 88 -41 166 -51
38 -4 43 -2 64 27 21 30 23 42 21 159 -2 147 10 257 32 297 9 16 21 40 27 52
5 13 30 49 54 80 65 86 132 192 145 235 17 50 7 88 -36 139 -68 82 -141 115
-188 84 -22 -15 -113 -145 -193 -277 -42 -70 -45 -69 -103 28 -125 212 -217
289 -294 248z"/>
<path d="M7720 554 c-8 -3 -22 -8 -30 -11 -31 -10 23 -33 77 -33 l53 0 0 -50
0 -50 -35 0 c-23 0 -38 -6 -42 -16 -7 -20 13 -34 50 -34 15 0 27 -1 28 -2 0
-2 2 -34 5 -73 3 -38 8 -73 12 -76 4 -4 26 -10 49 -14 36 -6 43 -4 53 16 13
24 15 123 5 199 -5 38 -16 57 -51 94 -26 28 -53 46 -66 46 -13 0 -39 2 -58 5
-19 2 -42 2 -50 -1z"/>
<path d="M7309 527 c-18 -12 -44 -38 -57 -57 -34 -51 -28 -142 14 -202 42 -60
81 -80 157 -80 l62 -1 -35 -13 -35 -14 50 6 c28 3 64 14 80 25 17 10 26 19 22
19 -5 0 -2 7 7 15 8 9 12 23 9 32 -4 10 -2 14 4 10 6 -4 9 3 8 16 -4 39 -6 42
-15 22 -5 -12 -6 1 -3 35 7 76 -33 153 -96 187 -59 31 -126 31 -172 0z m149
-46 c30 -16 62 -69 62 -104 0 -59 -66 -147 -111 -147 -31 0 -69 23 -75 44 -7
30 0 156 9 156 4 0 7 5 7 11 0 6 7 17 15 26 19 19 13 27 -14 18 -39 -12 -81
-142 -51 -160 6 -3 10 -12 10 -18 0 -7 -7 -3 -15 7 -23 31 -19 118 6 150 12
15 31 31 42 35 24 9 82 0 115 -18z"/>
<path d="M3386 530 c-31 -10 -63 -35 -77 -61 -13 -25 8 -80 44 -111 l30 -27
-29 -34 c-46 -51 -78 -107 -67 -118 13 -13 61 25 106 83 20 26 41 48 46 48 11
0 21 -36 21 -80 0 -53 32 -80 45 -39 6 17 9 19 17 8 11 -15 11 -16 -7 40 -6
19 -4 23 9 18 8 -3 18 -2 21 3 9 14 -7 41 -21 36 -11 -4 -14 14 -14 95 0 93
-2 102 -25 124 -25 26 -50 29 -99 15z m64 -39 c13 -25 13 -141 0 -141 -5 0
-10 24 -11 53 -1 48 -2 50 -9 18 -5 -19 -6 -40 -3 -48 8 -21 -12 -15 -41 12
-38 35 -35 77 7 104 40 26 44 26 57 2z"/>
<path d="M3420 481 c0 -5 5 -13 10 -16 6 -3 10 -2 10 4 0 5 -4 13 -10 16 -5 3
-10 2 -10 -4z"/>
<path d="M4459 532 c0 -4 0 -79 1 -167 1 -160 7 -189 37 -178 13 5 15 27 11
157 -3 83 -8 159 -12 168 -8 17 -36 33 -37 20z"/>
<path d="M4797 533 c-4 -3 -7 -73 -7 -155 l0 -148 -60 0 c-47 0 -60 -3 -60
-15 0 -21 10 -24 105 -33 l80 -8 -6 168 c-5 110 -11 174 -19 183 -14 16 -23
19 -33 8z"/>
<path d="M5032 524 c2 -15 15 -20 55 -25 67 -9 73 -13 73 -60 0 -39 0 -39 -39
-39 -43 0 -55 -9 -45 -34 4 -11 19 -16 46 -16 l39 0 -3 -52 -3 -53 -60 -5
c-52 -4 -60 -8 -60 -25 0 -18 8 -20 65 -23 36 -2 69 -7 75 -13 5 -6 2 -9 -10
-10 -15 0 -13 -3 8 -11 34 -12 68 11 60 43 -3 10 0 19 6 19 13 0 14 160 1 200
l-8 25 -2 -25 c-1 -14 -6 2 -11 34 -5 33 -12 63 -17 68 -5 5 -46 11 -91 15
-78 6 -83 5 -79 -13z m205 -196 c-3 -7 -5 -2 -5 12 0 14 2 19 5 13 2 -7 2 -19
0 -25z"/>
<path d="M5465 524 c-122 -63 -141 -204 -41 -292 41 -35 91 -52 159 -52 26 0
47 -4 47 -10 0 -5 -8 -10 -17 -11 -11 0 -13 -3 -6 -6 7 -2 29 5 48 17 34 21
35 24 35 80 0 122 -43 255 -90 280 -28 15 -101 12 -135 -6z m110 -134 c3 -60
4 -124 0 -141 -7 -29 -9 -31 -43 -25 -43 7 -109 67 -121 111 -19 73 53 165
130 165 l26 0 8 -110z"/>
<path d="M6124 521 c-96 -44 -127 -148 -71 -243 41 -70 96 -97 197 -99 75 0
85 4 88 42 2 19 -1 52 -6 74 l-9 40 -9 -55 c-9 -51 -10 -45 -16 88 -4 89 -11
148 -18 157 -18 21 -106 19 -156 -4z m106 -47 c6 -14 10 -75 10 -135 l0 -109
-29 0 c-29 0 -96 39 -118 69 -33 46 -20 137 25 169 53 38 99 40 112 6z"/>
<path d="M6180 483 c-65 -21 -97 -68 -86 -126 l7 -37 25 26 c14 14 27 30 28
37 3 19 39 77 48 77 4 0 8 7 8 15 0 16 -5 17 -30 8z"/>
<path d="M6499 517 c-68 -45 -97 -150 -63 -223 24 -51 87 -103 134 -110 22 -4
43 -11 46 -15 3 -5 20 -9 37 -9 34 0 87 37 87 62 0 8 5 19 11 25 14 14 -17
109 -64 197 -50 93 -118 120 -188 73z m101 -35 c23 -19 60 -134 60 -188 0 -62
-70 -87 -129 -45 -63 45 -78 118 -37 185 20 34 57 64 77 66 4 0 17 -8 29 -18z"/>
<path d="M6864 521 c-48 -22 -77 -59 -93 -117 -31 -116 51 -217 176 -218 30 0
49 -4 46 -10 -4 -5 1 -7 11 -3 10 4 26 7 36 7 10 0 25 7 33 15 8 8 17 11 21 8
3 -4 6 2 6 12 0 10 3 16 6 12 8 -8 24 10 47 51 14 25 17 43 12 70 -9 50 -24
75 -40 68 -9 -3 -23 8 -37 27 -33 47 -69 76 -108 87 -49 14 -69 12 -116 -9z
m142 -56 c91 -97 46 -225 -81 -225 -27 0 -44 8 -66 29 -28 28 -39 61 -20 61 5
0 7 8 4 18 -8 31 34 110 69 132 45 27 55 26 94 -15z"/>
<path d="M1666 520 c-62 -19 -97 -79 -76 -130 16 -39 74 -89 110 -97 25 -5 29
-11 35 -54 7 -50 26 -76 46 -63 14 8 5 322 -9 336 -14 14 -74 18 -106 8z m61
-107 c3 -68 1 -73 -18 -73 -25 0 -69 43 -69 67 0 10 9 33 20 51 15 24 27 32
43 30 20 -3 22 -9 24 -75z"/>
<path d="M2013 511 c-57 -26 -79 -68 -59 -113 18 -43 55 -77 103 -93 35 -12
39 -17 48 -64 10 -51 29 -81 42 -67 5 4 8 74 8 155 0 124 -3 151 -18 174 -21
33 -62 36 -124 8z m85 -104 l3 -78 -30 16 c-40 20 -71 54 -71 77 0 28 46 70
73 66 20 -3 22 -9 25 -81z"/>
<path d="M2426 521 c-14 -22 -136 -323 -136 -335 0 -8 7 -17 15 -20 11 -4 24
8 43 40 43 73 41 71 104 65 56 -6 58 -7 81 -51 15 -29 31 -46 45 -48 29 -4 28
13 -1 80 -13 30 -32 78 -42 108 -40 121 -89 194 -109 161z m65 -201 c2 -8 -3
-15 -11 -15 -8 0 -16 9 -18 20 -6 30 -22 43 -22 18 0 -21 -16 -40 -26 -30 -3
3 5 35 17 73 l22 68 17 -59 c9 -33 19 -67 21 -75z"/>
<path d="M2900 518 c0 -7 25 -51 55 -97 52 -79 55 -88 55 -145 0 -108 48 -134
52 -28 l2 57 3 -50 c2 -27 8 -54 13 -59 10 -10 29 31 32 70 1 13 5 24 9 24 8
0 24 68 34 138 3 29 2 41 -5 37 -13 -8 -13 1 1 27 8 14 8 23 0 31 -15 15 -46
-16 -83 -80 -17 -29 -33 -53 -36 -53 -4 0 -20 23 -37 51 -40 67 -95 112 -95
77z"/>
<path d="M3665 521 c-8 -14 3 -18 70 -26 33 -4 63 -12 67 -19 4 -6 8 -28 8
-48 l0 -38 -50 0 c-36 0 -50 -4 -50 -14 0 -17 22 -26 66 -26 l34 0 0 -59 c0
-68 -5 -72 -79 -66 -28 3 -53 0 -56 -5 -8 -13 37 -30 78 -30 18 -1 48 -7 68
-14 37 -13 37 -13 47 18 l10 31 1 -28 c1 -16 5 -26 11 -22 5 3 6 13 3 22 -4 9
-2 14 3 10 6 -3 11 23 12 64 1 40 -2 69 -8 69 -6 0 -10 -12 -11 -27 -1 -52
-10 -5 -17 93 -7 92 -9 99 -32 111 -29 15 -166 18 -175 4z"/>
<path d="M3990 526 c0 -3 15 -39 33 -78 18 -40 48 -109 66 -153 43 -106 54
-120 78 -105 26 17 53 66 107 199 46 110 51 141 24 141 -19 0 -34 -29 -88
-158 -26 -62 -50 -114 -54 -115 -3 -1 -26 47 -50 107 -47 116 -73 159 -100
164 -9 2 -16 1 -16 -2z"/>
<path d="M2171 333 c1 -60 4 -80 9 -63 12 37 12 150 0 150 -6 0 -10 -35 -9
-87z"/>
<path d="M1801 306 c-1 -38 2 -66 6 -63 11 12 14 82 4 108 -8 19 -10 10 -10
-45z"/>
<path d="M3520 324 c0 -8 5 -12 10 -9 6 4 8 11 5 16 -9 14 -15 11 -15 -7z"/>
<path d="M4237 272 c-29 -61 -32 -72 -18 -72 13 0 39 54 47 96 3 19 5 34 3 34
-2 0 -16 -26 -32 -58z"/>
<path d="M2591 270 c-1 -3 6 -23 14 -45 8 -22 14 -31 14 -20 0 17 -28 80 -28
65z"/>
<path d="M4526 255 c-3 -8 -1 -15 4 -15 6 0 10 7 10 15 0 8 -2 15 -4 15 -2 0
-6 -7 -10 -15z"/>
</g>
</svg>
